<?xml version="1.0" standalone="no"?>
<!DOCTYPE svg PUBLIC "-//W3C//DTD SVG 20010904//EN"
 "http://www.w3.org/TR/2001/REC-SVG-20010904/DTD/svg10.dtd">
<svg version="1.0" xmlns="http://www.w3.org/2000/svg"
 width="1024.000000pt" height="1024.000000pt" viewBox="0 0 1024.000000 1024.000000"
 preserveAspectRatio="xMidYMid meet">

<g transform="translate(0.000000,1024.000000) scale(0.100000,-0.100000)"
fill="#000000" stroke="none">
<path d="M10140 10153 c-47 -48 -66 -70 -42 -50 23 20 58 55 78 77 20 22 39
38 43 35 4 -2 8 2 8 10 0 8 -1 15 -1 15 -1 0 -40 -39 -86 -87z"/>
<path d="M9970 9983 l-75 -78 69 65 c38 36 76 71 83 78 8 6 11 12 6 12 -5 0
-42 -35 -83 -77z"/>
<path d="M9848 9866 c-42 -37 -45 -43 -23 -43 8 0 13 3 10 6 -3 2 9 20 27 38
41 42 34 42 -14 -1z"/>
<path d="M9787 9813 c-4 -3 -7 -13 -7 -22 1 -13 3 -13 11 2 11 19 8 33 -4 20z"/>
<path d="M9532 9557 c-128 -128 -230 -236 -227 -240 3 -4 2 -5 -2 -2 -10 8
-213 -197 -206 -208 3 -6 2 -7 -4 -4 -11 7 -166 -146 -158 -156 3 -4 2 -5 -2
-2 -7 6 -423 -404 -423 -417 0 -8 6 -16 50 -68 l21 -25 -21 43 c-11 23 -25 42
-31 42 -13 0 23 49 37 50 6 0 23 16 38 35 16 19 35 35 43 35 9 0 13 6 10 14
-4 10 0 12 14 9 10 -3 16 -9 13 -14 -3 -5 4 -9 16 -9 19 0 21 4 17 35 -6 44 4
51 71 47 47 -3 52 -2 52 17 0 14 6 21 20 21 13 0 20 7 20 20 0 14 7 20 21 20
19 0 20 5 18 62 -2 52 0 64 14 66 9 2 17 11 17 21 0 10 7 18 15 18 8 0 15 -5
15 -11 0 -8 2 -8 8 0 4 6 14 14 22 17 11 4 10 6 -4 6 -15 1 -16 3 -6 16 11 13
15 13 21 3 5 -7 9 -8 9 -3 0 6 20 9 46 6 l47 -3 -5 51 c-3 33 -1 51 6 51 6 0
5 4 -3 9 -9 6 -10 11 -2 15 6 4 11 4 11 1 0 -3 6 0 14 7 8 7 12 16 10 19 -2 4
3 12 11 19 11 9 15 9 15 1 0 -7 4 -10 9 -7 5 3 7 14 4 25 -3 11 2 21 11 24 9
4 16 3 16 -1 0 -4 9 -8 20 -9 14 -1 20 4 20 18 0 10 5 19 11 19 5 0 7 5 4 10
-4 7 -14 2 -26 -11 -10 -12 -19 -18 -19 -13 0 10 64 74 74 74 3 0 6 -5 6 -11
0 -5 -4 -7 -10 -4 -5 3 -10 1 -10 -5 0 -20 24 -5 30 18 3 12 14 32 25 44 11
13 20 26 20 30 0 15 15 20 15 4 0 -9 5 -14 10 -11 6 4 8 10 5 15 -7 11 131
151 140 142 4 -4 5 -2 3 4 -2 7 22 37 52 67 30 30 64 66 75 80 11 14 24 22 29
19 5 -3 6 0 3 5 -9 15 19 36 35 27 7 -4 10 -3 5 1 -4 5 3 19 15 32 12 12 19
25 17 28 -3 2 -109 -101 -237 -228z m-698 -752 c-4 -8 -8 -15 -10 -15 -2 0 -4
7 -4 15 0 8 4 15 10 15 5 0 7 -7 4 -15z"/>
<path d="M2260 8673 c-107 -5 -180 -15 -175 -24 4 -5 -1 -6 -9 -3 -8 3 -39 -3
-69 -14 -30 -12 -71 -19 -91 -17 -20 1 -39 -1 -42 -6 -3 -5 1 -6 9 -3 8 3 18
0 22 -6 4 -7 -3 -9 -23 -5 -25 4 -43 -5 -103 -48 -128 -91 -225 -235 -272
-402 l-22 -80 -3 -2910 c-2 -2662 -1 -2917 14 -2990 9 -44 16 -90 16 -102 0
-13 4 -21 8 -18 4 3 11 -2 14 -11 9 -24 7 -31 -5 -14 -7 11 -9 4 -5 -27 8 -61
39 -173 48 -173 5 0 5 -12 2 -26 -5 -18 -3 -25 4 -20 10 6 32 -71 32 -111 0
-14 3 -13 22 3 75 64 -503 -522 -1021 -1036 -336 -333 -611 -610 -611 -617 0
-11 1002 -13 5120 -13 l5120 0 0 3780 0 3780 -40 0 -40 0 0 100 0 100 40 0 40
0 0 60 0 60 -80 0 c-73 0 -80 2 -80 20 0 18 7 20 80 20 l80 0 0 120 0 120
-120 0 -120 0 0 80 0 80 40 0 40 0 0 40 0 40 -80 0 -80 0 0 40 0 40 -40 0 -40
0 0 -40 0 -40 -520 0 -520 0 0 -40 0 -40 40 0 40 0 0 -40 0 -40 40 0 40 0 0
-40 c0 -33 3 -40 20 -40 13 0 20 -7 20 -20 0 -13 7 -20 20 -20 13 0 20 -7 20
-20 0 -13 7 -20 20 -20 13 0 20 -7 20 -20 0 -11 5 -20 10 -20 6 0 10 -9 10
-20 0 -11 5 -20 10 -20 6 0 10 -27 10 -60 0 -53 2 -60 20 -60 18 0 20 -7 20
-60 0 -53 2 -60 20 -60 17 0 20 -7 20 -40 l0 -40 -40 0 -40 0 0 -40 0 -40 -40
0 -40 0 0 40 c0 33 -3 40 -20 40 -13 0 -20 7 -20 20 0 13 -7 20 -20 20 -18 0
-20 7 -20 60 0 53 -2 60 -20 60 -17 0 -20 7 -20 40 0 33 -3 40 -20 40 -13 0
-20 7 -20 19 0 10 -7 22 -16 25 -16 6 -16 8 0 24 22 26 21 52 -4 52 -13 0 -20
7 -20 19 0 14 -10 21 -35 25 -46 9 -55 2 -56 -42 -1 -38 -29 105 -31 160 -1
15 -5 25 -9 23 -10 -7 -41 74 -33 87 5 7 2 8 -6 3 -10 -6 -12 -4 -7 8 3 9 1
19 -5 23 -7 5 -9 2 -4 -7 4 -8 1 -5 -6 5 -7 10 -22 29 -33 40 -11 12 -14 15
-7 6 16 -21 15 -27 -3 -27 -8 0 -12 4 -9 9 3 4 -2 8 -10 8 -9 0 -16 8 -16 19
0 11 -9 21 -21 24 -12 3 -18 10 -14 16 3 6 -1 11 -10 11 -9 0 -13 5 -10 10 3
6 2 10 -4 10 -5 0 -27 16 -48 35 -21 19 -42 35 -46 35 -5 0 -5 5 -2 10 4 6 3
9 -2 8 -4 -2 -46 16 -93 39 -47 23 -97 44 -110 47 -128 29 149 26 -3430 29
-1356 1 -2490 1 -2520 0z m6362 -335 c-7 -7 -12 -8 -12 -2 0 14 12 26 19 19 2
-3 -1 -11 -7 -17z m-3455 -100 c33 -30 31 -80 -3 -107 -15 -12 -35 -21 -46
-21 -27 0 -68 45 -68 75 0 32 41 75 71 75 13 0 33 -10 46 -22z m-298 -30 c16
-42 -2 -55 -86 -62 -211 -19 -444 -69 -663 -143 -196 -66 -305 -113 -483 -209
-168 -90 -200 -99 -205 -52 -3 21 5 32 40 56 55 38 261 148 358 191 274 123
730 236 963 240 61 1 68 -1 76 -21z m744 7 c153 -23 359 -73 517 -125 299 -98
570 -243 570 -305 0 -2 -7 -11 -15 -19 -14 -14 -31 -8 -168 64 -323 167 -685
278 -1012 310 -134 13 -156 23 -137 65 11 23 16 25 79 25 38 0 112 -7 166 -15z
m-2389 -157 c2 -7 9 -35 15 -63 17 -69 42 -92 113 -106 85 -17 91 -59 10 -74
-81 -15 -107 -41 -127 -130 -10 -43 -15 -50 -36 -50 -21 0 -26 8 -40 65 -20
76 -39 95 -114 110 -40 8 -56 17 -61 32 -7 22 9 38 38 38 44 0 99 33 118 71
11 21 20 45 20 53 0 33 20 66 40 66 11 0 22 -6 24 -12z m3569 1 c29 -16 37
-28 37 -61 0 -37 -38 -62 -79 -53 -56 12 -75 62 -37 100 28 28 46 31 79 14z
m-4182 -109 c28 -16 26 -68 -3 -79 -50 -20 -89 43 -46 73 27 19 24 19 49 6z
m2746 -105 c96 -44 173 -118 218 -208 19 -38 35 -76 35 -84 0 -18 30 -29 110
-43 36 -6 101 -19 145 -28 l80 -17 3 -44 c2 -24 -1 -48 -5 -52 -5 -5 -62 5
-128 21 -66 16 -157 35 -202 41 l-81 12 -7 35 c-24 129 -142 246 -289 288
l-66 19 0 51 c0 28 2 53 5 56 11 11 113 -15 182 -47z m-287 -9 l0 -54 -52 -12
c-86 -21 -153 -58 -208 -116 -52 -55 -100 -142 -100 -182 0 -26 7 -24 -140
-51 -63 -12 -160 -37 -215 -55 -116 -39 -139 -36 -124 16 5 17 12 34 17 37 4
3 13 18 19 32 10 24 19 27 105 38 51 6 130 19 175 28 79 16 83 18 89 47 34
156 235 324 392 325 l42 1 0 -54z m2430 39 c18 -22 8 -50 -19 -50 -32 0 -49
28 -32 49 17 20 35 20 51 1z m230 -1 c11 -12 10 -18 -3 -32 -16 -15 -18 -15
-34 0 -13 14 -14 20 -3 32 7 9 16 16 20 16 4 0 13 -7 20 -16z m-3231 -90 c12
-15 21 -37 21 -49 0 -35 -37 -75 -69 -75 -44 0 -81 35 -81 76 0 71 86 103 129
48z m1341 4 c44 -48 9 -128 -57 -128 -44 0 -73 30 -73 75 0 22 8 43 20 55 27
27 83 27 110 -2z m-3005 -78 c-3 -5 -12 -10 -18 -10 -7 0 -6 4 3 10 19 12 23
12 15 0z m-150 -50 c23 -25 13 -63 -20 -78 -51 -23 -91 27 -61 73 20 30 56 32
81 5z m2542 -21 c69 -27 143 -93 174 -157 35 -72 34 -198 -3 -272 -44 -90 -97
-136 -191 -165 -235 -73 -453 153 -381 395 30 102 94 167 202 206 56 20 134
17 199 -7z m-1112 -24 c30 -29 32 -68 5 -95 -50 -50 -122 -26 -128 43 -6 71
72 104 123 52z m2125 -2 c40 -51 9 -113 -55 -113 -47 0 -69 21 -69 65 0 71 81
102 124 48z m1138 5 c14 -14 -2 -48 -22 -48 -20 0 -39 27 -32 45 6 18 37 20
54 3z m-216 -95 c188 -151 471 -454 452 -484 -3 -5 0 -9 5 -9 6 0 11 -7 11
-16 0 -8 4 -13 9 -10 5 3 11 -1 14 -9 4 -8 1 -12 -6 -9 -7 2 -21 -3 -32 -11
-19 -16 -19 -16 8 -10 19 4 26 2 22 -5 -18 -28 -50 -3 -168 133 -135 154 -212
230 -354 350 -94 78 -110 106 -81 135 20 20 33 14 120 -55z m-4760 40 c23 -21
23 -34 -3 -67 -47 -59 -125 -3 -89 65 13 24 66 26 92 2z m728 -39 c22 -26 1
-55 -115 -161 -223 -203 -434 -468 -571 -716 -52 -94 -68 -109 -102 -100 -40
10 -26 52 62 201 113 188 199 306 330 451 137 153 343 341 372 341 6 0 17 -7
24 -16z m4762 -81 c22 -20 24 -76 2 -93 -23 -20 -75 -16 -90 5 -46 63 31 140
88 88z m-4388 -14 c30 -23 33 -54 9 -81 -33 -37 -103 -11 -103 38 0 20 41 64
60 64 4 0 19 -9 34 -21z m3298 8 c28 -22 33 -62 9 -86 -25 -25 -49 -27 -79 -5
-28 19 -29 57 -2 84 23 23 47 25 72 7z m814 -25 c21 -13 25 -49 9 -66 -21 -21
-61 -21 -69 0 -20 51 19 94 60 66z m-4958 -14 c29 -29 -7 -86 -47 -73 -26 8
-38 50 -21 70 15 18 51 20 68 3z m3616 -95 c14 -19 19 -40 17 -75 -3 -65 14
-115 53 -157 86 -92 225 -79 303 30 25 35 42 49 59 49 29 0 30 -12 5 -66 -46
-102 -135 -160 -241 -158 -151 4 -291 143 -294 294 -1 42 5 63 22 87 26 36 47
35 76 -4z m-2190 5 c27 -38 21 -123 -13 -195 -55 -116 -146 -181 -267 -191
-119 -9 -218 50 -270 161 -31 66 -30 72 5 75 25 2 35 -5 60 -42 81 -117 187
-144 295 -76 55 35 86 96 86 170 0 47 4 58 32 87 38 39 51 41 72 11z m1701
-12 c185 -48 250 -91 216 -144 -6 -10 -18 -9 -57 6 -80 32 -193 61 -298 77
-54 8 -100 16 -102 18 -2 2 -1 18 2 35 4 21 13 32 28 34 33 5 146 -9 211 -26z
m-1085 -10 c0 -39 -3 -41 -92 -51 -73 -8 -221 -47 -302 -80 -35 -14 -66 -25
-69 -25 -4 0 -7 13 -7 29 0 55 90 102 270 141 47 10 111 19 143 19 l57 1 0
-34z m-848 -43 c22 -20 23 -70 1 -95 -20 -22 -70 -23 -95 -1 -22 20 -23 70 -1
95 20 22 70 23 95 1z m2673 1 c10 -11 15 -29 13 -52 -6 -74 -95 -95 -123 -29
-14 33 -11 52 13 80 19 22 75 22 97 1z m703 -56 c7 -7 12 -24 12 -38 0 -47
-42 -66 -75 -34 -16 16 -13 46 7 72 13 15 40 16 56 0z m-4162 -83 c15 -23 15
-27 0 -50 -19 -29 -47 -32 -70 -9 -20 19 -20 34 0 62 20 29 50 28 70 -3z
m1698 -11 c9 -21 13 -40 9 -44 -4 -4 -30 -13 -58 -19 -68 -16 -172 -80 -224
-136 -51 -55 -77 -111 -87 -183 -6 -49 -10 -55 -46 -73 -34 -18 -39 -18 -45
-4 -3 9 -1 44 5 78 31 187 125 307 299 383 103 45 124 44 147 -2z m829 13
c171 -62 272 -166 313 -320 14 -53 19 -167 8 -167 -4 0 -21 9 -39 20 -27 17
-33 27 -38 69 -17 141 -155 278 -334 331 -24 7 -43 15 -43 16 0 2 8 19 17 39
20 42 31 43 116 12z m-2199 -9 c9 -12 16 -28 16 -35 0 -7 -51 -63 -112 -125
-203 -203 -315 -358 -430 -593 -32 -66 -63 -127 -67 -135 -11 -20 -61 -19 -74
2 -25 39 134 342 283 540 75 99 337 368 358 368 6 0 18 -10 26 -22z m3697
-205 c113 -106 271 -329 365 -516 65 -131 69 -170 17 -175 -31 -3 -33 -1 -83
101 -89 184 -174 309 -327 485 -46 51 -83 98 -83 104 0 22 22 48 41 48 11 0
43 -21 70 -47z m-4910 27 c39 -21 13 -75 -33 -68 -30 4 -38 46 -12 65 21 16
20 16 45 3z m5919 -5 c17 -20 3 -54 -26 -61 -42 -11 -72 34 -42 64 16 16 53
15 68 -3z m-4605 -35 c14 -28 14 -28 -61 -109 -141 -150 -209 -249 -265 -386
l-37 -89 -62 -14 c-34 -8 -64 -11 -68 -8 -8 9 88 198 148 291 92 141 296 365
320 350 6 -3 17 -19 25 -35z m3368 -69 c97 -98 112 -126 82 -151 -21 -17 -29
-13 -154 86 l-111 88 37 38 c20 21 40 38 43 38 4 0 50 -44 103 -99z m-2159 44
c22 -19 37 -36 35 -38 -2 -2 -44 -20 -94 -41 -49 -20 -96 -40 -103 -43 -10 -4
-10 4 3 33 16 40 91 124 110 124 5 -1 28 -16 49 -35z m928 -12 c39 -42 58 -73
58 -98 0 -14 -3 -14 -32 1 -18 10 -66 29 -106 44 l-72 26 42 31 c24 17 50 32
58 32 9 1 32 -16 52 -36z m-2774 5 c18 -18 14 -56 -7 -68 -26 -14 -50 -3 -57
26 -11 42 34 72 64 42z m3459 -18 c49 -29 90 -123 46 -105 -49 21 -108 24
-171 11 -80 -17 -101 -7 -85 41 22 67 139 97 210 53z m1101 8 c17 -17 15 -55
-4 -66 -43 -24 -88 36 -49 65 23 16 37 17 53 1z m-3310 -24 c70 -35 104 -91
104 -172 0 -69 -15 -112 -39 -112 -13 0 -14 -3 -6 -8 9 -6 6 -15 -12 -32 -43
-44 -55 -51 -85 -52 -16 -1 -27 -4 -25 -8 3 -4 -12 -10 -33 -12 -41 -5 -92 8
-92 24 0 6 -7 8 -15 4 -27 -10 -91 65 -105 122 -45 188 136 332 308 246z
m-428 -67 c0 -11 -83 -128 -156 -222 -67 -86 -121 -193 -131 -261 l-8 -50 -53
24 c-53 24 -54 24 -47 61 18 103 128 275 262 411 l94 95 19 -25 c11 -14 20
-29 20 -33z m1390 -105 l0 -58 -97 -12 c-332 -39 -613 -187 -813 -429 -90
-108 -166 -250 -200 -373 -29 -102 -37 -290 -17 -385 l15 -70 -58 -170 c-32
-93 -70 -203 -84 -242 -14 -40 -26 -81 -25 -90 0 -11 5 -6 11 12 6 17 18 35
27 42 11 8 12 12 4 13 -7 0 -13 5 -13 11 0 8 4 8 14 0 8 -7 25 -9 42 -5 24 6
26 5 14 -8 -8 -8 -22 -13 -32 -10 -13 3 -17 0 -12 -11 7 -19 28 -16 54 6 20
17 24 12 21 -25 -1 -10 2 -18 8 -18 5 0 17 -7 25 -16 15 -14 16 -14 16 0 0 9
-6 16 -14 16 -22 0 -27 15 -17 44 10 25 14 26 71 10 22 -7 24 -6 11 9 -7 9
-24 17 -37 17 -24 0 -32 14 -14 25 6 3 10 1 10 -6 0 -8 4 -8 15 1 12 10 15 10
15 -4 0 -11 13 -18 40 -22 24 -4 47 -15 55 -26 7 -11 18 -17 24 -13 7 4 11 -7
11 -30 0 -22 -4 -34 -10 -30 -5 3 -10 1 -10 -4 0 -6 5 -11 10 -11 6 0 10 -23
10 -50 0 -62 17 -104 61 -155 66 -74 67 -75 489 -75 l375 0 0 -32 c0 -18 -6
-37 -12 -41 -7 -4 -13 -15 -13 -24 0 -9 -2 -14 -4 -12 -2 2 -4 7 -3 11 1 4 -7
14 -18 23 -20 16 -19 16 3 5 13 -6 22 -7 22 -1 0 5 3 18 7 28 6 15 4 16 -8 6
-8 -6 -27 -10 -43 -9 -16 2 -40 0 -55 -4 -26 -8 -26 -8 5 -9 22 -1 37 -9 49
-27 9 -14 15 -28 12 -30 -2 -3 -11 6 -20 20 -11 15 -28 25 -51 28 -19 2 -33 2
-31 -1 3 -2 -3 -13 -12 -23 -16 -18 -16 -22 -2 -46 8 -15 25 -28 37 -30 12 -2
22 -7 22 -12 0 -12 -30 -1 -52 18 -16 13 -18 13 -18 -1 0 -8 3 -17 8 -20 4 -2
1 -2 -6 0 -8 1 -20 3 -28 3 -8 0 -14 7 -14 15 0 8 -9 15 -20 15 -13 0 -18 -5
-14 -15 4 -9 0 -15 -9 -15 -8 0 -17 9 -20 20 -3 11 -1 18 4 14 5 -3 9 0 9 6 0
17 -31 24 -40 9 -5 -7 -12 -10 -16 -6 -4 4 -13 2 -21 -5 -11 -9 -17 -8 -29 3
-13 13 -10 15 22 16 39 1 74 23 37 23 -12 0 -23 6 -26 13 -2 6 -3 4 -2 -5 4
-25 -13 -22 -35 4 -16 20 -19 21 -33 6 -9 -9 -13 -19 -9 -23 4 -4 -10 -5 -31
-1 -26 5 -37 4 -33 -3 4 -6 1 -21 -6 -33 -7 -13 -12 -25 -11 -28 1 -3 -14 -6
-32 -6 -19 0 -32 3 -29 7 2 5 11 6 19 3 13 -5 55 28 55 44 0 5 -6 16 -13 26
-15 20 -87 33 -87 16 0 -6 3 -9 8 -7 4 3 7 -13 7 -34 0 -38 -2 -40 -25 -34
-14 4 -26 11 -28 16 -7 20 -20 8 -14 -13 5 -22 5 -22 -11 -6 -27 27 -20 38 23
38 22 0 40 4 40 8 0 5 -18 8 -41 7 -41 -1 -67 -23 -54 -45 4 -6 -5 -5 -19 2
-14 6 -26 19 -26 30 0 29 -38 23 -46 -7 -7 -29 -5 -28 -41 -15 l-28 10 25 -20
c46 -36 83 -50 99 -37 11 9 13 9 8 0 -4 -6 -1 -14 5 -16 7 -3 2 -6 -13 -6 -25
-1 -103 43 -126 70 -6 8 -21 39 -32 69 -32 82 -40 95 -71 114 -50 29 -100 2
-100 -53 0 -11 7 -26 15 -35 21 -21 6 -26 -41 -16 -21 5 -53 10 -70 10 -83 0
-112 87 -53 155 18 20 33 46 34 59 3 22 0 23 -75 25 -130 3 -170 22 -170 77 0
34 18 86 138 404 l70 185 -19 85 c-76 345 107 743 466 1012 189 142 476 244
698 247 l67 1 0 -58z m362 33 c165 -38 354 -122 488 -216 164 -115 347 -335
415 -498 65 -157 83 -292 65 -489 l-13 -137 90 -235 c103 -267 120 -328 104
-359 -19 -34 -64 -51 -140 -51 -38 0 -76 -3 -85 -6 -23 -9 -19 -34 10 -65 36
-37 44 -105 17 -138 -16 -19 -36 -27 -99 -37 -43 -6 -81 -10 -83 -8 -2 2 4 15
13 28 19 30 21 60 3 74 -20 17 -69 17 -97 2 -14 -8 -29 -14 -35 -15 -5 0 -10
-7 -11 -15 -2 -28 -4 -30 -28 -20 -15 5 -27 5 -35 -3 -8 -8 -11 -6 -11 9 0 10
-4 15 -8 9 -4 -5 -23 -11 -42 -12 l-35 -3 45 22 c25 11 49 20 53 19 5 -1 6 3
3 7 -3 5 4 18 15 28 24 21 53 76 63 117 3 15 11 27 17 27 6 0 7 -5 4 -10 -4
-6 -1 -17 5 -25 8 -9 8 -15 2 -15 -6 0 -13 6 -15 13 -3 6 -6 1 -6 -12 -1 -17
3 -22 15 -17 8 3 24 1 35 -4 25 -14 24 -5 -2 21 -11 11 -17 24 -13 27 3 4 9 2
11 -5 3 -9 9 -10 23 -1 18 11 18 12 -3 23 -13 7 -21 19 -19 31 2 18 2 18 -11
2 -17 -21 -37 -23 -37 -4 0 18 47 27 60 11 5 -6 7 -14 4 -18 -3 -3 4 -11 16
-17 17 -9 19 -14 9 -26 -7 -9 -8 -14 -1 -14 6 0 15 6 19 14 4 7 15 16 23 19
10 3 4 8 -17 12 -28 7 -52 40 -37 54 3 3 7 -5 11 -17 3 -12 13 -22 22 -21 10
0 11 2 3 6 -6 2 -9 9 -6 14 3 6 0 18 -7 27 -11 14 -10 13 8 -1 13 -11 27 -16
35 -12 10 6 11 5 1 -6 -7 -7 -13 -18 -13 -23 0 -6 5 -4 10 4 9 13 11 13 20 0
9 -13 10 -13 10 0 1 11 4 10 15 -4 8 -11 15 -15 15 -10 0 6 -5 15 -12 22 -9 9
-9 12 1 12 7 0 11 6 8 15 -4 8 -2 17 3 20 6 4 10 1 10 -6 0 -10 3 -10 12 -1 7
7 19 12 26 12 8 0 30 15 48 34 l33 34 -69 207 c-39 114 -74 214 -79 222 -5 10
-2 37 7 72 24 83 20 284 -6 383 -51 189 -132 328 -274 469 -192 191 -428 306
-713 347 l-120 17 -3 59 -3 59 98 -6 c54 -3 128 -13 165 -22z m2468 -5 c25
-25 25 -41 -1 -74 -36 -46 -109 -25 -109 32 0 56 69 83 110 42z m-5250 -30 c0
-22 -19 -30 -42 -18 -23 11 -23 34 -1 47 21 12 43 -3 43 -29z m4125 -54 c183
-83 223 -317 79 -463 -85 -86 -193 -104 -314 -52 -138 59 -203 248 -134 387
24 49 80 104 132 131 64 34 160 32 237 -3z m-502 2 l22 -23 3 23 c3 23 26 30
37 12 8 -13 -54 -72 -69 -67 -6 3 -20 -3 -31 -12 -18 -15 -19 -15 -6 2 7 9 10
17 7 17 -4 0 -1 6 6 14 9 10 15 11 20 2 6 -8 8 -7 8 2 0 21 -27 43 -44 36 -21
-8 -20 -24 2 -25 13 0 12 -2 -5 -9 -15 -6 -21 -15 -17 -25 3 -8 2 -15 -3 -15
-5 0 -9 9 -10 20 -1 11 4 20 10 20 7 0 6 4 -3 10 -9 5 -19 5 -27 -2 -9 -7 -13
-7 -13 1 0 12 54 40 78 41 6 0 22 -10 35 -22z m923 -211 c72 -111 130 -225
182 -357 79 -200 105 -302 118 -465 12 -148 11 -155 -3 -143 -11 9 -12 13 -1
19 10 7 8 9 -5 9 -10 0 -15 5 -12 10 3 6 1 10 -5 10 -7 0 -8 6 -1 19 6 10 7
21 4 25 -3 3 0 6 7 6 7 0 11 2 8 5 -13 13 -35 -7 -30 -27 4 -18 2 -20 -13 -14
-11 4 -22 1 -27 -6 -5 -8 -8 0 -7 22 2 44 -15 137 -47 260 -51 196 -126 368
-227 518 -30 45 -58 94 -62 109 -3 16 -18 54 -33 87 l-26 58 24 18 24 18 44
-56 c25 -32 64 -87 88 -125z m-916 122 c0 -4 -7 -6 -15 -3 -8 4 -15 10 -15 15
0 4 7 6 15 3 8 -4 15 -10 15 -15z m-952 -73 c109 -55 180 -173 158 -260 -5
-20 -13 -26 -34 -26 -22 0 -35 10 -59 44 -35 50 -118 103 -174 112 l-36 6 -6
76 c-3 42 -4 79 -2 83 8 12 103 -9 153 -35z m-258 -45 l0 -78 -41 -7 c-60 -10
-109 -38 -162 -95 -36 -38 -55 -51 -76 -51 -39 0 -47 35 -26 107 11 39 30 70
63 105 65 69 118 95 200 97 l42 1 0 -79z m-2796 8 c33 -26 36 -77 4 -105 -12
-10 -18 -13 -14 -7 5 9 2 11 -8 7 -9 -3 -16 -10 -16 -15 0 -5 -13 -9 -29 -9
-33 0 -71 39 -71 72 0 28 54 78 83 78 13 0 36 -9 51 -21z m1463 4 c51 -24 75
-67 70 -126 -8 -96 -97 -141 -187 -95 -74 38 -89 122 -32 189 42 51 89 61 149
32z m983 -8 c0 -7 -32 -85 -35 -85 -2 0 -22 9 -46 19 l-44 20 55 25 c55 26 70
30 70 21z m885 -24 l39 -17 -41 -21 -42 -22 -25 46 -26 45 28 -7 c15 -3 45
-14 67 -24z m2137 -18 c22 -20 23 -42 2 -71 -28 -40 -94 -17 -94 34 0 48 55
70 92 37z m-5167 -78 c0 -22 -31 -33 -47 -17 -17 17 -1 44 24 40 15 -2 23 -10
23 -23z m5553 -11 c47 -53 15 -114 -62 -114 -50 0 -62 10 -70 60 -14 79 76
116 132 54z m-3531 -13 c73 -34 98 -118 43 -146 -46 -24 -95 -71 -130 -125
l-32 -49 -40 26 c-53 36 -148 43 -214 18 -25 -9 -48 -15 -50 -12 -9 8 36 104
58 124 11 10 42 20 71 23 50 5 52 6 58 40 8 53 24 76 71 99 53 26 110 27 165
2z m1209 0 c52 -24 74 -55 74 -103 l0 -38 53 0 c43 0 58 -5 74 -22 33 -36 63
-91 63 -116 0 -22 0 -22 -32 -6 -18 10 -65 19 -104 22 -58 4 -77 1 -111 -17
-23 -11 -44 -25 -48 -31 -11 -17 -24 -11 -39 19 -23 44 -112 137 -145 151
l-29 12 14 41 c8 23 22 50 32 60 42 48 128 60 198 28z m-736 -221 c0 -175 -1
-180 -20 -180 -37 0 -99 40 -126 79 -63 95 -30 216 70 262 79 36 76 42 76
-161z m167 165 c50 -21 72 -42 94 -90 23 -51 24 -99 0 -150 -18 -41 -82 -105
-104 -105 -7 0 -22 -3 -34 -6 l-23 -6 0 186 c0 207 -3 200 67 171z m1898 -190
c94 -192 135 -353 135 -525 l0 -86 -36 -13 c-20 -7 -55 -30 -77 -50 l-40 -36
7 28 c4 17 2 27 -5 27 -8 0 -8 4 -2 13 6 6 15 53 22 103 11 91 2 187 -30 309
-19 71 -71 189 -105 237 -31 44 -32 47 -15 62 10 9 26 35 37 57 17 38 19 40
32 22 8 -10 43 -76 77 -148z m-3857 121 c73 -34 162 -122 195 -195 18 -38 21
-66 22 -156 0 -100 -2 -115 -28 -167 -15 -31 -46 -75 -68 -97 -37 -39 -95 -81
-111 -81 -5 0 -8 29 -8 64 0 57 3 65 25 80 34 23 76 108 82 171 23 222 -241
368 -419 232 -122 -93 -135 -278 -29 -399 27 -31 31 -43 31 -92 0 -31 -4 -56
-8 -56 -19 0 -104 64 -132 100 -109 137 -106 349 7 497 30 40 113 95 173 117
71 25 190 17 268 -18z m-610 -33 c19 -26 15 -51 -13 -78 -29 -30 -58 -32 -85
-5 -26 26 -25 60 1 89 17 18 28 22 53 17 17 -4 37 -14 44 -23z m4978 -1 c53
-35 25 -122 -40 -122 -39 0 -52 9 -65 41 -15 41 18 89 61 89 18 0 38 -4 44 -8z
m-5455 -58 c80 -41 67 -172 -19 -199 -29 -9 -82 3 -79 18 1 7 -6 11 -16 10
-26 -2 -51 60 -42 103 7 41 56 84 96 84 17 0 44 -7 60 -16z m2599 -31 c0 -52
31 -128 73 -177 l24 -30 -49 -39 c-47 -37 -51 -38 -68 -22 -46 41 -143 56
-194 30 l-29 -15 7 46 c16 121 127 252 214 254 20 0 22 -5 22 -47z m751 19
c77 -49 148 -159 149 -229 0 -31 -1 -32 -26 -23 -59 23 -167 0 -203 -43 -12
-16 -16 -14 -47 12 -18 16 -41 34 -50 39 -16 9 -14 14 19 52 42 49 67 115 67
177 0 38 3 43 23 43 13 0 43 -13 68 -28z m-1916 8 c3 -5 1 -10 -4 -10 -6 0
-11 5 -11 10 0 6 2 10 4 10 3 0 8 -4 11 -10z m118 -7 c-7 -17 -43 -37 -43 -24
0 5 8 12 18 15 9 3 5 4 -11 2 -15 -2 -30 1 -34 7 -3 6 -1 7 5 3 7 -4 12 -2 12
4 0 5 13 9 29 8 19 -1 27 -6 24 -15z m-13 -43 c0 -5 -9 -10 -19 -10 -11 0 -22
-6 -24 -12 -3 -8 -6 -7 -6 4 -1 10 8 18 22 21 12 2 23 5 25 6 1 0 2 -3 2 -9z
m2805 -41 c5 -5 17 -9 27 -9 10 0 18 -5 18 -11 0 -5 4 -8 8 -5 9 6 42 -29 42
-44 0 -6 -5 -10 -11 -10 -5 0 -7 5 -4 11 4 6 -2 5 -14 -3 -28 -17 -27 -30 3
-22 16 4 25 1 29 -10 6 -14 3 -15 -15 -5 -17 9 -20 9 -16 -3 4 -8 -1 -14 -11
-14 -9 -1 -23 -4 -31 -7 -11 -5 -22 13 -46 73 -30 77 -30 80 -10 74 12 -3 25
-10 31 -15z m370 -29 c-3 -4 2 -13 10 -20 8 -7 15 -18 15 -24 0 -6 -5 -3 -11
7 -13 23 -29 22 -29 -3 0 -11 -4 -20 -10 -20 -5 0 -7 7 -4 15 5 11 2 14 -12 9
-11 -4 -25 -11 -31 -17 -19 -14 -40 -2 -58 32 -8 17 -14 31 -13 31 2 0 28 9
58 19 55 19 55 19 72 -1 10 -11 16 -24 13 -28z m1321 15 c54 -35 76 -107 51
-168 -21 -49 -69 -77 -130 -77 -42 0 -54 5 -82 33 -39 39 -50 72 -41 121 18
94 124 142 202 91z m-4581 -3 c-3 -3 -11 0 -18 7 -9 10 -8 11 6 5 10 -3 15 -9
12 -12z m50 8 c3 -5 1 -10 -4 -10 -6 0 -11 5 -11 10 0 6 2 10 4 10 3 0 8 -4
11 -10z m-483 -45 c36 -24 78 -95 78 -131 -1 -40 -39 -104 -80 -131 l-41 -28
4 -155 c4 -164 12 -198 65 -284 13 -21 19 -35 13 -32 -6 4 -11 3 -11 -3 0 -5
8 -11 18 -13 11 -2 13 -6 5 -11 -6 -4 -18 -1 -26 7 -8 8 -17 12 -21 9 -3 -4
-6 0 -6 7 0 7 -3 10 -6 7 -4 -4 -2 -13 4 -20 9 -10 7 -17 -8 -30 -19 -16 -25
-11 -21 15 0 3 -14 21 -31 40 -52 55 -68 126 -68 303 l0 153 -36 27 c-20 15
-44 41 -55 59 -26 43 -25 119 2 163 44 71 152 95 221 48z m483 15 c3 -5 1 -10
-4 -10 -6 0 -11 5 -11 10 0 6 2 10 4 10 3 0 8 -4 11 -10z m683 -15 c20 -9 46
-25 58 -36 19 -18 21 -25 12 -57 -17 -61 -4 -277 21 -346 22 -63 20 -81 -10
-73 -12 3 -17 1 -13 -5 12 -18 -86 -2 -115 19 -34 25 -71 98 -71 141 0 19 10
50 21 69 18 28 20 39 10 59 -14 31 -63 33 -84 3 -15 -20 -16 -20 -42 -3 -68
44 -66 124 5 188 22 19 52 38 67 42 16 3 33 7 38 9 25 8 69 4 103 -10z m1642
-8 c52 -27 97 -80 106 -124 6 -29 2 -38 -34 -74 l-41 -40 -29 21 c-24 18 -34
20 -50 11 -30 -16 -35 -45 -16 -82 20 -40 13 -122 -14 -158 -36 -48 -70 -66
-127 -66 -29 0 -56 3 -60 7 -4 4 4 35 16 70 22 57 24 79 24 238 l0 174 34 23
c47 32 131 32 191 0z m-3423 -79 c-3 -13 -19 -77 -36 -142 -17 -66 -37 -167
-44 -225 l-12 -106 -30 4 c-16 1 -34 5 -39 8 -18 11 22 284 59 402 l26 81 41
0 c37 0 40 -2 35 -22z m5112 -4 c44 -97 92 -394 71 -435 -13 -24 -57 -25 -64
-1 -3 9 -12 67 -21 127 -9 61 -27 154 -41 209 -26 106 -23 126 21 126 14 0 26
-9 34 -26z m-1129 -14 c-6 -11 -13 -20 -16 -20 -2 0 0 9 6 20 6 11 13 20 16
20 2 0 0 -9 -6 -20z m-1510 -244 l0 -204 -47 12 c-68 18 -105 40 -142 82 -38
43 -51 73 -51 120 0 99 100 191 213 193 l27 1 0 -204z m220 172 c81 -35 113
-81 112 -164 -1 -95 -47 -155 -145 -188 -67 -22 -77 -21 -77 12 0 15 -3 105
-7 200 l-6 173 39 -6 c21 -4 59 -16 84 -27z m1325 -8 c3 -6 -1 -7 -9 -4 -18 7
-21 14 -7 14 6 0 13 -4 16 -10z m-1905 -39 c23 -17 25 -24 22 -87 -8 -165 104
-299 281 -336 l57 -12 0 -48 c0 -46 -1 -48 -27 -48 -16 0 -57 7 -92 15 -199
47 -366 213 -400 398 -13 70 -3 100 41 127 38 24 79 21 118 -9z m953 15 c63
-48 33 -201 -66 -331 -50 -66 -114 -119 -194 -159 -58 -29 -152 -56 -195 -56
-27 0 -28 2 -28 49 0 51 9 61 53 61 40 0 146 58 191 104 56 59 76 116 76 223
0 83 0 83 33 103 37 23 103 26 130 6z m1290 -27 c23 -25 27 -38 27 -87 0 -82
-13 -96 -90 -97 -56 0 -64 3 -87 29 -22 26 -25 36 -19 79 9 83 48 122 111 111
17 -3 42 -19 58 -35z m-822 -122 c-12 -24 -35 -56 -52 -73 l-32 -29 7 34 c3
18 6 49 6 67 0 30 5 35 43 52 52 23 58 11 28 -51z m-1968 33 c10 0 15 -13 15
-43 1 -24 6 -56 11 -71 10 -24 9 -26 -7 -17 -27 14 -49 43 -71 91 -29 64 -28
74 9 55 16 -8 35 -15 43 -15z m3802 -20 c0 -20 -6 -26 -28 -28 -18 -2 -29 2
-33 12 -11 28 4 48 33 44 22 -2 28 -8 28 -28z m-5657 -6 c4 -25 -20 -47 -42
-38 -16 6 -22 45 -9 58 14 14 48 1 51 -20z m-250 8 c10 -7 8 -35 -10 -138 -29
-171 -31 -560 -4 -753 9 -69 19 -128 21 -132 9 -13 -24 -30 -52 -27 -25 3 -29
9 -40 57 -41 185 -43 691 -4 891 11 58 21 106 21 108 0 6 56 1 68 -6z m6181
-10 c27 -50 45 -260 44 -517 0 -281 -11 -388 -60 -618 -25 -113 -30 -128 -50
-133 -59 -15 -64 11 -32 156 31 142 58 366 65 535 7 154 -3 290 -32 467 -9 53
-14 104 -11 113 9 22 64 20 76 -3z m-5502 -139 c-12 -7 -32 -12 -44 -13 -28 0
-31 32 -8 88 l16 37 29 -50 29 -50 -22 -12z m4713 67 c0 -5 -2 -10 -4 -10 -3
0 -8 5 -11 10 -3 6 -1 10 4 10 6 0 11 -4 11 -10z m-1269 -118 c-22 -60 -83
-127 -142 -157 -42 -22 -195 -49 -233 -42 -7 1 -10 -15 -8 -51 11 -155 -78
-262 -215 -262 -118 0 -188 64 -180 163 5 54 21 76 86 114 54 32 75 32 108 1
28 -26 30 -86 3 -79 -50 13 -62 12 -80 -4 -38 -34 -13 -90 44 -101 71 -13 146
53 146 129 0 48 -12 78 -50 121 l-31 35 32 41 c18 22 35 40 38 40 3 0 31 -9
61 -21 44 -17 70 -20 131 -17 94 6 165 37 242 108 59 54 73 49 48 -18z m-1973
-54 c84 -42 181 -49 267 -20 l60 21 43 -42 c38 -38 41 -43 24 -50 -34 -16 -72
-87 -72 -137 0 -57 16 -88 59 -117 65 -44 141 -21 141 42 0 26 -6 39 -24 50
-22 15 -27 15 -49 1 -28 -19 -37 -13 -37 25 0 36 53 83 84 73 44 -14 108 -67
123 -101 28 -68 -9 -161 -77 -195 -42 -21 -129 -23 -173 -5 -47 20 -95 64
-120 111 -17 32 -22 57 -21 117 l1 76 -78 6 c-88 6 -163 35 -221 86 -40 35
-78 107 -78 147 0 26 1 26 43 -15 23 -23 70 -56 105 -73z m-838 18 c0 -8 -8
-17 -17 -19 -11 -3 -7 -5 10 -6 19 -1 26 3 21 11 -4 7 -3 8 4 4 7 -4 12 -11
12 -15 0 -11 -60 -20 -61 -9 -1 4 -2 14 -3 21 -3 18 3 27 20 27 8 0 14 -6 14
-14z m3502 -4 c14 -6 13 -13 -12 -62 -15 -30 -33 -54 -40 -52 -8 2 -10 -3 -6
-13 3 -10 1 -15 -7 -14 -6 1 -20 -1 -29 -5 -10 -5 -25 -5 -34 -2 -15 6 -15 8
0 29 9 12 28 46 43 75 27 53 43 61 85 44z m-3953 -61 c81 -58 93 -197 23 -274
-69 -77 -205 -74 -265 4 -71 95 -47 226 51 279 52 28 145 24 191 -9z m4511 9
c60 -31 93 -81 97 -148 5 -71 -15 -114 -75 -159 -38 -28 -52 -33 -101 -33 -76
0 -117 26 -154 100 -22 43 -27 63 -22 94 20 131 144 202 255 146z m-4028 -14
c3 3 9 1 13 -5 3 -6 -1 -11 -9 -11 -9 0 -16 -6 -17 -12 0 -7 -5 -1 -11 15 -5
15 -14 24 -20 21 -7 -5 -8 -2 -4 5 6 9 12 9 25 -3 10 -9 20 -13 23 -10z m12
-50 c-3 -9 -10 -13 -15 -10 -5 3 -3 11 4 19 15 16 19 13 11 -9z m-904 -51 c10
-12 10 -15 -4 -15 -9 0 -16 -8 -16 -20 0 -27 -40 -27 -47 0 -3 11 -9 17 -14
14 -14 -8 -10 3 7 20 20 20 58 21 74 1z m4226 -1 c18 -15 18 -15 -4 -10 -17 3
-22 1 -18 -9 2 -7 -1 -15 -7 -18 -7 -3 -13 3 -13 14 0 11 4 19 9 19 4 0 5 5 2
10 -9 15 9 12 31 -6z m1000 7 c-3 -5 2 -8 12 -7 11 0 18 -7 20 -21 2 -13 -1
-23 -7 -23 -6 0 -8 -7 -4 -16 5 -14 3 -15 -15 -5 -12 7 -22 21 -22 31 0 26
-14 25 -33 -2 -14 -20 -16 -21 -16 -5 -1 32 19 57 45 57 14 0 23 -4 20 -9z
m-4589 -33 c-3 -8 -6 -5 -6 6 -1 11 2 17 5 13 3 -3 4 -12 1 -19z m97 -42 c-4
-10 -10 -13 -13 -8 -4 6 -11 4 -19 -4 -11 -13 -9 -14 13 -10 24 4 26 2 22 -17
-6 -21 -6 -21 8 -3 8 11 11 22 6 25 -4 3 -5 15 -1 25 6 18 7 18 28 -4 12 -13
20 -26 17 -29 -3 -2 -12 4 -20 15 -14 18 -15 18 -11 -8 3 -16 0 -28 -5 -28 -6
0 -8 -4 -5 -9 4 -5 -2 -8 -11 -6 -10 2 -22 4 -28 4 -5 1 -3 6 5 11 12 8 11 10
-7 10 -12 0 -24 3 -27 8 -7 12 22 45 33 37 6 -3 11 -1 11 6 0 7 2 10 5 7 3 -3
2 -13 -1 -22z m4813 -28 c28 -27 29 -48 2 -82 -37 -47 -109 -24 -109 36 0 33
31 68 62 68 12 0 32 -10 45 -22z m-5805 -5 c39 -35 10 -103 -44 -103 -59 0
-86 50 -52 98 18 27 69 30 96 5z m1108 -47 c0 -6 -5 -4 -10 4 -8 12 -13 13
-29 3 -19 -12 -31 -8 -31 11 0 6 5 4 10 -4 5 -8 10 -12 11 -7 1 4 3 12 4 17 1
6 3 13 4 17 2 10 41 -29 41 -41z m597 -19 c-3 -7 -6 -5 -6 5 -1 10 -7 15 -13
13 -8 -3 -14 4 -14 20 l-2 25 20 -25 c11 -14 17 -31 15 -38z m1017 57 c9 -3
13 -11 9 -18 -3 -6 -1 -6 8 2 7 6 25 12 40 12 39 0 34 -34 -12 -81 -30 -30
-99 -77 -99 -67 0 2 6 26 14 54 7 29 11 64 9 78 -5 26 2 31 31 20z m326 -68
c0 -5 -9 -1 -20 9 -11 10 -20 22 -20 26 0 5 9 1 20 -8 11 -10 20 -22 20 -27z
m-1290 12 c0 -13 -23 -5 -28 10 -2 7 2 10 12 6 9 -3 16 -11 16 -16z m80 18 c0
-3 -4 -8 -10 -11 -5 -3 -10 -1 -10 4 0 6 5 11 10 11 6 0 10 -2 10 -4z m23 -18
c-11 -15 -11 -28 0 -45 9 -15 -9 -15 -58 -3 -23 6 -25 8 -8 9 33 2 54 12 47
23 -4 6 0 14 7 19 19 12 23 11 12 -3z m24 -10 c-3 -8 -6 -5 -6 6 -1 11 2 17 5
13 3 -3 4 -12 1 -19z m159 0 c4 -13 12 -26 18 -30 6 -4 1 -6 -11 -6 -13 1 -19
7 -16 15 3 7 0 20 -7 28 -8 9 -8 15 -2 15 6 0 14 -10 18 -22z m-1117 -81 l33
-37 -28 -22 c-28 -23 -64 -60 -88 -93 -13 -18 -16 -17 -65 13 -28 18 -55 32
-61 32 -26 0 -14 24 40 84 32 36 67 77 76 92 l18 26 20 -28 c12 -16 36 -46 55
-67z m2086 83 c3 -5 1 -10 -4 -10 -6 0 -11 5 -11 10 0 6 2 10 4 10 3 0 8 -4
11 -10z m-1910 -10 c3 -5 1 -10 -4 -10 -6 0 -11 5 -11 10 0 6 2 10 4 10 3 0 8
-4 11 -10z m565 -5 c0 -8 -2 -15 -4 -15 -2 0 -6 7 -10 15 -3 8 -1 15 4 15 6 0
10 -7 10 -15z m350 5 c0 -5 -5 -10 -11 -10 -5 0 -7 5 -4 10 3 6 8 10 11 10 2
0 4 -4 4 -10z m-380 -4 c0 -3 -4 -8 -10 -11 -5 -3 -10 -1 -10 4 0 6 5 11 10
11 6 0 10 -2 10 -4z m3225 -43 c21 -27 56 -67 79 -90 22 -24 38 -44 35 -46 -2
-2 -27 -17 -56 -32 l-52 -28 -66 62 c-36 33 -72 61 -80 61 -8 0 -15 2 -15 4 0
7 104 114 111 115 4 1 24 -20 44 -46z m-3260 26 c11 -16 1 -19 -13 -3 -7 8 -8
14 -3 14 5 0 13 -5 16 -11z m89 -14 c-4 -8 -11 -12 -16 -9 -6 4 -5 10 3 15 19
12 19 11 13 -6z m-37 -1 c-3 -3 -12 -4 -19 -1 -8 3 -5 6 6 6 11 1 17 -2 13 -5z
m449 -19 c3 -14 11 -25 17 -25 6 0 8 -2 5 -5 -10 -10 -37 7 -31 20 4 11 -3 13
-26 10 -17 -2 -31 1 -31 6 0 6 9 7 20 4 11 -4 20 -2 20 4 0 21 20 10 26 -14z
m2032 5 c7 -11 11 -20 9 -20 -2 0 -12 9 -22 20 -10 11 -14 20 -9 20 5 0 15 -9
22 -20z m1337 -12 c70 -29 93 -49 85 -73 -4 -11 -5 -26 -3 -32 3 -7 0 -13 -7
-13 -6 0 -8 5 -5 10 3 6 1 10 -4 10 -6 0 -11 -5 -11 -11 0 -6 -16 -2 -36 10
-20 12 -68 30 -106 41 -39 11 -72 21 -74 23 -2 1 8 17 22 34 28 37 51 37 139
1z m-5145 -9 c12 -16 21 -31 19 -33 -24 -15 -134 -54 -142 -49 -5 3 -7 1 -4
-4 8 -12 -34 -43 -58 -43 -8 0 -15 5 -15 12 0 6 -3 8 -6 5 -4 -4 -1 -13 5 -21
10 -12 9 -14 -8 -9 -11 3 -22 11 -25 19 -6 16 -26 19 -26 3 0 -5 5 -7 10 -4 6
3 10 1 10 -4 0 -13 -3 -13 -25 -5 -15 6 -14 8 1 25 9 10 21 16 26 13 4 -3 7 0
6 7 -2 6 3 14 11 17 9 3 11 0 6 -8 -6 -9 -4 -11 4 -6 7 5 10 14 8 20 -5 13 8
23 88 68 65 36 88 35 115 -3z m3640 27 c0 -2 -7 -7 -16 -10 -8 -3 -12 -2 -9 4
6 10 25 14 25 6z m-1906 -44 c15 -18 15 -20 -6 -38 -13 -10 -18 -12 -11 -5 8
9 9 21 3 37 -11 29 -8 30 14 6z m1953 11 c-4 -3 -1 -13 6 -22 11 -14 10 -14
-5 -2 -21 15 -23 31 -6 31 6 0 8 -3 5 -7z m85 -18 c2 3 5 -1 5 -8 0 -8 -6 -14
-14 -14 -7 0 -13 6 -13 14 0 7 -10 13 -22 13 -18 0 -20 2 -8 10 10 6 20 4 31
-6 8 -8 18 -12 21 -9z m-204 2 c9 3 14 3 11 -1 -9 -10 -49 -16 -49 -7 0 13 14
23 18 12 2 -5 11 -7 20 -4z m77 3 c3 -5 1 -10 -4 -10 -6 0 -11 5 -11 10 0 6 2
10 4 10 3 0 8 -4 11 -10z m158 -5 c-3 -9 -8 -14 -10 -11 -3 3 -2 9 2 15 9 16
15 13 8 -4z m-1996 -20 c0 -8 -8 -17 -18 -20 -9 -3 -20 -12 -23 -20 -8 -21 21
-19 33 3 10 16 10 16 11 0 0 -10 8 -18 17 -18 13 0 14 3 5 12 -7 7 -12 16 -12
21 0 5 17 -6 38 -25 62 -56 123 -80 223 -87 49 -4 89 -4 89 -1 0 3 10 6 23 8
13 1 42 8 66 17 52 18 69 11 44 -18 -14 -17 -14 -19 -1 -9 11 9 18 10 23 2 3
-5 14 -10 23 -9 12 0 10 3 -6 10 -13 5 -20 14 -17 20 4 6 13 8 20 5 7 -2 21 2
32 9 17 14 17 14 0 15 -10 0 -27 -5 -38 -10 -12 -7 -19 -7 -19 -1 0 9 25 21
43 21 4 -1 15 6 24 15 8 9 22 14 30 11 8 -3 12 -2 9 2 -2 4 8 15 24 24 l29 16
-1 -71 c0 -40 3 -87 6 -104 6 -32 5 -33 -29 -33 -26 0 -34 3 -29 13 6 9 5 9
-8 0 -10 -9 -50 -13 -123 -12 -59 1 -102 5 -95 9 8 5 22 7 32 5 10 -2 16 0 13
6 -4 5 -11 7 -16 4 -5 -4 -9 2 -10 12 0 14 -2 15 -6 3 -13 -33 -38 -39 -156
-40 -73 0 -116 4 -112 10 3 5 12 7 20 3 8 -3 15 0 15 6 0 15 40 14 41 -1 0
-10 2 -10 6 0 2 6 9 12 14 12 6 0 7 -6 3 -12 -6 -10 -3 -9 8 0 31 25 11 41
-72 56 -3 1 -11 5 -17 9 -18 12 -16 -3 4 -25 10 -12 12 -18 4 -18 -7 0 -9 -5
-5 -12 4 -6 3 -8 -4 -4 -6 3 -18 -1 -26 -10 -12 -12 -16 -12 -17 -2 0 10 -2
10 -6 1 -2 -7 -20 -13 -39 -13 -20 0 -33 4 -30 9 3 4 17 6 31 3 14 -2 25 0 25
6 0 5 14 12 30 16 17 3 30 10 30 16 0 6 -4 9 -8 6 -4 -2 -9 5 -9 16 -3 34 -18
42 -42 22 -13 -12 -17 -22 -11 -29 6 -8 5 -18 -5 -31 -13 -17 -14 -17 -15 -1
0 9 6 17 13 17 9 0 8 3 -2 9 -7 5 -11 13 -7 19 3 6 2 13 -4 17 -5 3 -11 -2
-11 -12 -1 -10 -5 -4 -8 12 -4 17 -4 38 1 48 12 23 -8 22 -23 -2 -7 -10 -20
-16 -29 -14 -10 3 -17 -1 -17 -10 0 -12 6 -13 24 -6 32 12 33 12 27 -5 -3 -8
-12 -12 -20 -9 -8 3 -14 1 -14 -4 0 -5 16 -15 35 -22 46 -16 35 -34 -16 -26
-36 6 -39 5 -38 -17 0 -13 3 -17 6 -9 5 11 7 11 15 0 7 -11 11 -11 15 -1 7 17
24 15 17 -3 -7 -16 -99 -22 -108 -6 -3 4 5 6 18 4 19 -4 24 0 29 26 9 42 7 47
-15 43 -10 -2 -21 4 -24 12 -8 22 4 68 16 61 6 -4 7 3 0 19 -7 20 -6 24 5 19
9 -3 15 1 15 10 0 9 8 18 18 20 9 3 17 5 18 6 0 0 1 -6 1 -14z m1918 -4 c-3
-6 -14 -10 -23 -10 -15 1 -15 2 1 6 9 2 17 9 17 15 0 6 3 9 6 5 3 -3 3 -10 -1
-16z m-2025 -1 c-8 -5 -19 -10 -25 -10 -5 0 -3 5 5 10 8 5 20 10 25 10 6 0 3
-5 -5 -10z m1864 -25 c-4 -8 -11 -15 -16 -15 -6 0 -5 6 2 15 7 8 14 15 16 15
2 0 1 -7 -2 -15z m1697 -6 c-2 -8 -4 -19 -4 -26 0 -7 -6 -14 -13 -17 -10 -4
-11 1 -5 17 4 12 6 28 3 36 -3 8 1 12 9 9 8 -3 12 -12 10 -19z m-1591 -5 c0
-2 -7 -4 -15 -4 -8 0 -15 4 -15 10 0 5 7 7 15 4 8 -4 15 -8 15 -10z m-1970 2
c0 -2 -9 -6 -20 -9 -11 -3 -18 -1 -14 4 5 9 34 13 34 5z m40 -6 c0 -5 -6 -10
-14 -10 -8 0 -13 -9 -12 -22 1 -13 -2 -29 -7 -35 -6 -9 -5 -13 4 -13 8 0 6 -5
-6 -13 -11 -9 -15 -19 -11 -28 4 -8 0 -5 -9 6 -22 27 -16 61 10 57 18 -2 17 0
-5 18 l-25 21 25 -7 c14 -3 22 -3 18 1 -9 9 9 35 23 35 5 0 9 -4 9 -10z m1970
-4 c0 -2 -7 -9 -15 -16 -12 -10 -15 -10 -15 4 0 9 7 16 15 16 8 0 15 -2 15 -4z
m1615 -26 c3 -6 -1 -7 -9 -4 -18 7 -21 14 -7 14 6 0 13 -4 16 -10z m-5588 -45
c0 -20 -4 -19 -17 5 -8 15 -8 18 3 14 8 -3 14 -11 14 -19z m453 -14 c0 -38 0
-39 -47 -46 -58 -9 -130 -36 -185 -72 -24 -15 -46 -27 -49 -28 -3 0 -17 -13
-31 -28 -18 -19 -27 -24 -30 -15 -4 11 -8 11 -20 0 -12 -9 -18 -10 -23 -2 -4
6 -14 9 -22 6 -8 -4 -11 -1 -7 5 3 6 17 8 30 5 13 -4 24 -2 24 3 0 5 -9 11
-20 13 -20 3 -19 4 5 31 15 15 31 24 37 21 6 -4 8 -3 4 4 -8 13 54 65 114 94
50 24 137 46 188 47 31 1 32 -1 32 -38z m4760 29 c75 -10 239 -77 212 -87 -8
-3 -5 -11 10 -23 13 -10 19 -22 15 -26 -4 -5 -12 -2 -17 6 -8 13 -10 13 -10
-1 0 -8 6 -21 13 -29 6 -8 2 -6 -10 4 -15 12 -23 15 -23 7 0 -8 -10 -5 -27 7
-40 28 -152 61 -217 63 -49 2 -56 5 -56 23 0 12 -3 31 -6 44 -7 26 0 27 116
12z m-5165 -10 c4 -6 1 -9 -7 -8 -8 2 -12 -5 -10 -17 2 -19 2 -19 -9 -1 -9 14
-8 20 2 27 17 11 17 11 24 -1z m1035 -12 c79 -41 109 -113 83 -200 -23 -79
-107 -127 -194 -113 -150 25 -177 240 -40 312 55 29 95 29 151 1z m3478 -18
c2 -20 -5 -28 -30 -40 -43 -20 -55 -42 -42 -77 6 -18 20 -32 39 -38 22 -7 31
-17 33 -37 3 -27 1 -28 -38 -28 -35 0 -48 6 -77 35 -34 34 -35 38 -31 95 6 83
44 122 113 117 24 -2 31 -7 33 -27z m-4564 -8 c3 -5 -1 -9 -9 -9 -8 0 -15 4
-15 9 0 4 4 8 9 8 6 0 12 -4 15 -8z m1996 -6 c-7 -7 -13 -7 -20 0 -6 6 -3 10
10 10 13 0 16 -4 10 -10z m2695 -6 c-3 -5 1 -20 9 -32 10 -14 16 -44 16 -80 0
-66 -12 -74 -49 -34 -20 21 -23 32 -18 76 5 50 20 80 39 80 5 0 6 -4 3 -10z
m-3978 -106 c-3 -18 1 -61 10 -95 21 -83 13 -88 -76 -54 l-70 28 -3 109 c-2
60 -1 111 1 113 2 2 35 -12 73 -31 70 -35 70 -36 65 -70z m4282 -77 l1 -47
-57 -25 c-68 -30 -89 -29 -85 5 1 14 5 58 8 98 l7 73 56 33 56 32 6 -60 c4
-34 7 -82 8 -109z m-4539 9 c0 -41 -2 -44 -32 -50 -18 -3 -46 -13 -62 -21 -15
-8 -33 -12 -39 -8 -6 3 -7 1 -3 -5 5 -8 0 -12 -13 -12 -12 0 -21 -7 -21 -15 0
-8 -4 -15 -9 -15 -5 0 -8 7 -7 16 0 9 -6 19 -14 21 -13 4 -13 3 0 -6 8 -6 12
-11 8 -11 -3 0 -13 -2 -20 -5 -16 -6 -19 31 -5 53 20 30 161 100 205 102 8 0
12 -15 12 -44z m4723 27 c-13 -2 -35 -2 -50 0 -16 2 -5 4 22 4 28 0 40 -2 28
-4z m-2223 -17 c0 -2 -7 -7 -16 -10 -8 -3 -12 -2 -9 4 6 10 25 14 25 6z m190
-6 c0 -13 -11 -13 -30 0 -12 8 -11 10 8 10 12 0 22 -4 22 -10z m310 2 c0 -4
-16 -6 -35 -4 -19 2 -35 6 -35 8 0 2 16 4 35 4 19 0 35 -4 35 -8z m1720 0 c0
-5 -16 -9 -35 -10 -19 -1 -35 3 -35 8 0 6 16 10 35 10 19 0 35 -4 35 -8z
m-5123 -17 c0 -8 -4 -15 -9 -15 -10 0 -11 14 -1 23 9 10 10 9 10 -8z m5209
-13 c-4 -3 -14 2 -24 12 -16 18 -16 18 6 6 13 -6 21 -14 18 -18z m-1681 -2 c3
-6 -1 -7 -9 -4 -18 7 -21 14 -7 14 6 0 13 -4 16 -10z m145 6 c0 -2 -7 -7 -16
-10 -8 -3 -12 -2 -9 4 6 10 25 14 25 6z m1445 -6 c3 -6 -1 -7 -9 -4 -18 7 -21
14 -7 14 6 0 13 -4 16 -10z m-35 -10 c0 -5 -5 -10 -11 -10 -5 0 -7 5 -4 10 3
6 8 10 11 10 2 0 4 -4 4 -10z m-2263 -22 c-3 -8 -6 -5 -6 6 -1 11 2 17 5 13 3
-3 4 -12 1 -19z m2428 12 c3 -5 2 -10 -4 -10 -5 0 -13 5 -16 10 -3 6 -2 10 4
10 5 0 13 -4 16 -10z m-98 -6 c-3 -3 -12 -4 -19 -1 -8 3 -5 6 6 6 11 1 17 -2
13 -5z m-3387 -184 c87 -87 109 -92 410 -99 253 -7 255 -7 310 -35 64 -32 131
-94 165 -153 14 -23 25 -44 25 -47 0 -3 -36 -6 -80 -6 -44 0 -80 4 -80 9 0 5
-11 23 -25 39 -13 16 -21 33 -17 37 4 5 2 5 -4 2 -7 -4 -29 1 -50 10 -33 15
-84 18 -334 23 -293 5 -296 5 -345 31 -64 32 -92 75 -101 150 -7 61 -6 61 -72
74 -39 8 -57 36 -42 64 16 31 60 61 89 61 14 0 33 4 40 9 12 8 19 -3 35 -52
16 -48 32 -74 76 -117z m540 150 c0 -5 -4 -10 -10 -10 -5 0 -10 5 -10 10 0 6
5 10 10 10 6 0 10 -4 10 -10z m1625 -4 c35 -15 55 -42 55 -73 0 -14 -2 -15 -9
-4 -7 11 -10 9 -15 -6 -7 -21 -51 -38 -91 -35 -11 0 -15 -1 -10 -4 12 -5 7
-104 -5 -104 -5 0 -11 6 -13 13 -4 7 -6 6 -6 -5 -1 -9 5 -18 12 -21 9 -3 9 -8
-2 -18 -9 -9 -11 -9 -7 -1 4 7 1 12 -9 12 -12 0 -14 -4 -6 -19 8 -14 5 -23
-17 -42 l-27 -24 24 28 c14 15 19 27 12 27 -20 0 -48 33 -33 38 7 2 9 8 6 14
-3 5 -13 0 -21 -11 -8 -12 -23 -21 -34 -21 -10 0 -19 -7 -19 -15 0 -21 -10
-19 -51 9 -31 21 -41 23 -75 16 -21 -5 -131 -10 -244 -11 -124 -1 -185 -5
-155 -9 38 -5 43 -8 20 -10 l-30 -2 30 -7 30 -7 -30 -6 c-16 -4 -31 -2 -33 3
-6 15 -19 10 -25 -10 -4 -17 3 -20 87 -25 50 -3 100 -6 111 -6 68 0 89 -1 93
-5 14 -14 -20 -16 -163 -8 -86 4 -159 5 -162 1 -2 -5 -13 -8 -25 -8 -16 0 -19
5 -15 26 3 19 1 24 -10 20 -8 -3 -18 -6 -23 -6 -4 0 -6 -9 -3 -21 5 -19 2 -20
-36 -18 -27 2 -45 -1 -50 -10 -5 -7 -12 -13 -17 -14 -5 -1 -8 -5 -7 -9 2 -5
-2 -8 -8 -8 -6 0 -19 -10 -28 -22 -18 -21 -51 -33 -51 -19 0 16 83 102 127
132 24 17 51 28 59 25 8 -3 13 -2 10 3 -11 18 45 24 289 30 268 8 273 9 375
69 25 14 49 25 53 24 5 -1 6 1 3 6 -2 4 8 27 24 51 16 24 32 59 36 77 6 31 9
34 40 34 19 0 50 -6 69 -14z m-1985 -20 c0 -3 -4 -8 -10 -11 -5 -3 -10 -1 -10
4 0 6 5 11 10 11 6 0 10 -2 10 -4z m323 -3 c-7 -2 -19 -2 -25 0 -7 3 -2 5 12
5 14 0 19 -2 13 -5z m2412 -13 c18 -20 18 -21 0 -14 -11 5 -16 4 -12 -3 3 -5
0 -10 -8 -10 -11 0 -12 5 -3 21 l11 21 -23 -20 -23 -20 12 23 c14 27 23 28 46
2z m-2064 -23 l-24 -22 19 27 c10 14 21 24 23 22 3 -3 -6 -15 -18 -27z m86
-19 c-3 -8 -6 -5 -6 6 -1 11 2 17 5 13 3 -3 4 -12 1 -19z m-1906 -28 c33 -21
70 -42 81 -46 15 -4 18 -12 14 -27 -33 -114 -30 -218 10 -327 20 -57 21 -62 4
-40 -79 103 -221 480 -181 480 5 0 38 -18 72 -40z m1547 23 c-10 -2 -26 -2
-35 0 -10 3 -2 5 17 5 19 0 27 -2 18 -5z m2282 -5 c24 3 24 3 -4 -12 -35 -20
-33 -20 -39 4 -3 14 -1 18 6 13 7 -4 23 -6 37 -5z m-4880 -18 c11 -11 20 -24
20 -30 0 -17 -39 -50 -58 -50 -60 0 -54 98 6 100 6 0 21 -9 32 -20z m2323 3
c-7 -2 -19 -2 -25 0 -7 3 -2 5 12 5 14 0 19 -2 13 -5z m205 0 c-32 -2 -86 -2
-120 0 -35 2 -9 3 57 3 66 0 94 -1 63 -3z m197 -13 c12 -4 -7 -6 -45 -3 -36 3
-67 7 -69 9 -9 8 95 2 114 -6z m2579 0 c44 -16 115 -89 126 -129 40 -144 -64
-273 -210 -259 -53 5 -103 37 -144 91 -31 42 -34 134 -6 192 43 89 150 137
234 105z m-4484 -101 l0 -101 48 -45 c26 -24 37 -39 26 -32 -23 13 -59 5 -49
-11 3 -5 -1 -10 -9 -10 -9 0 -16 5 -16 10 0 6 -12 10 -27 9 l-28 0 25 -10 c22
-9 23 -11 8 -20 -29 -16 -117 -18 -146 -3 -14 7 -29 11 -34 8 -4 -3 -8 -1 -8
4 0 5 20 27 45 50 l45 41 0 105 0 106 60 0 60 0 0 -101z m1970 76 c14 -8 21
-14 15 -14 -5 0 -21 6 -35 14 -14 8 -20 14 -15 14 6 0 21 -6 35 -14z m167 -27
c-3 -7 -5 -2 -5 12 0 14 2 19 5 13 2 -7 2 -19 0 -25z m-1402 -26 c70 -34 125
-132 125 -221 0 -25 -3 -29 -17 -24 -17 5 -17 5 -1 -8 22 -19 7 -62 -19 -52
-15 6 -16 5 -3 -9 8 -9 20 -13 25 -10 6 3 4 -1 -3 -10 -15 -19 -12 -38 8 -55
13 -11 13 -12 -2 -7 -18 6 -22 -2 -19 -36 1 -9 -6 -5 -16 9 -10 13 -18 29 -18
35 0 6 -4 11 -10 11 -5 0 -9 -5 -7 -12 2 -7 -3 -12 -10 -11 -7 2 -12 -2 -11
-9 3 -16 -76 -27 -124 -18 -116 21 -186 105 -187 221 0 166 151 274 289 206z
m1326 -9 c13 -16 12 -17 -3 -4 -17 13 -22 21 -14 21 2 0 10 -8 17 -17z m79 -7
c0 -2 -7 -7 -16 -10 -8 -3 -12 -2 -9 4 6 10 25 14 25 6z m-39 -23 c13 -16 12
-17 -3 -4 -17 13 -22 21 -14 21 2 0 10 -8 17 -17z m39 -23 c0 -5 -2 -10 -4
-10 -3 0 -8 5 -11 10 -3 6 -1 10 4 10 6 0 11 -4 11 -10z m910 -9 c0 -5 -12 -8
-26 -8 -18 0 -22 2 -13 8 18 11 39 11 39 0z m-247 -8 c-7 -2 -19 -2 -25 0 -7
3 -2 5 12 5 14 0 19 -2 13 -5z m317 -74 c9 -5 -32 -9 -97 -9 -64 0 -113 4
-113 9 0 20 175 19 210 0z m87 15 c-3 -3 -12 -4 -19 -1 -8 3 -5 6 6 6 11 1 17
-2 13 -5z m-40 -10 c-3 -3 -12 -4 -19 -1 -8 3 -5 6 6 6 11 1 17 -2 13 -5z
m-519 -21 c-10 -2 -28 -2 -40 0 -13 2 -5 4 17 4 22 1 32 -1 23 -4z m-93 -14
c-16 -4 -33 -5 -37 -1 -4 4 10 8 30 9 37 1 37 1 7 -8z m-3261 -64 c75 -69 24
-195 -78 -195 -50 0 -83 21 -102 66 -46 110 94 209 180 129z m5915 21 c75 -39
64 -186 -17 -217 -65 -25 -153 17 -165 81 -15 74 42 150 114 150 22 0 52 -6
68 -14z m-5356 -48 c5 -19 5 -19 -14 -2 -22 20 -25 36 -5 28 8 -3 16 -14 19
-26z m2418 -11 c-10 -9 -11 -8 -5 6 3 10 9 15 12 12 3 -3 0 -11 -7 -18z
m-2354 -23 c-3 -3 -12 -4 -19 -1 -8 3 -5 6 6 6 11 1 17 -2 13 -5z m1818 -14
c-12 -5 -14 -9 -6 -9 11 -1 10 -4 -4 -14 -17 -13 -17 -15 3 -35 13 -13 16 -22
9 -24 -12 -4 -217 -2 -325 3 -49 2 -53 4 -48 23 5 20 5 20 -12 -1 -21 -27 -88
-35 -102 -13 -7 12 -12 12 -21 3 -10 -10 -16 -10 -28 0 -10 8 -13 8 -8 0 5 -8
-4 -11 -30 -11 -21 0 -41 0 -45 -1 -19 -2 -23 0 -23 12 -1 18 18 27 32 15 10
-8 13 -6 13 6 0 9 -4 16 -10 16 -5 0 -10 5 -10 11 0 5 5 7 12 3 7 -5 9 -2 5 9
-5 14 23 16 306 16 186 0 304 -4 292 -9z m-797 -46 c3 -39 16 -64 34 -64 6 0
8 7 5 14 -4 10 -1 13 8 10 8 -3 11 -12 9 -19 -4 -9 1 -13 15 -12 22 1 28 12
11 20 -6 3 -5 4 2 3 16 -3 22 -31 12 -54 -4 -9 -6 -24 -5 -32 1 -8 -5 -4 -13
10 -13 22 -13 26 2 32 19 7 17 9 -16 12 -13 2 -27 -4 -32 -13 -8 -14 -9 -13
-10 3 0 10 -7 24 -17 31 -9 7 -16 25 -15 43 0 18 -4 34 -9 38 -5 3 -7 10 -3
15 10 17 20 1 22 -37z m-38 22 c0 -9 -30 -14 -35 -6 -4 6 3 10 14 10 12 0 21
-2 21 -4z m110 0 c0 -2 -7 -7 -16 -10 -8 -3 -12 -2 -9 4 6 10 25 14 25 6z m20
-20 c0 -2 -7 -7 -16 -10 -8 -3 -12 -2 -9 4 6 10 25 14 25 6z m-120 -16 c0 -5
-4 -10 -9 -10 -6 0 -13 5 -16 10 -3 6 1 10 9 10 9 0 16 -4 16 -10z m-660 -117
c113 -161 111 -159 233 -280 72 -72 107 -114 106 -127 -2 -18 -2 -18 -6 2 -3
15 -10 22 -19 18 -8 -3 -14 -1 -14 4 0 13 -31 18 -57 9 -18 -7 -21 -4 -18 17
1 13 -1 24 -6 24 -5 0 -6 7 -2 16 4 11 1 15 -13 13 -10 -2 -25 0 -31 4 -8 5
-13 4 -13 -2 0 -6 5 -11 10 -11 21 0 9 -16 -12 -17 -13 0 -18 1 -12 3 6 3 10
19 8 36 -4 30 -8 36 -44 58 -8 4 -12 12 -8 15 4 4 14 0 23 -9 28 -28 46 -18
25 14 -7 11 -10 11 -10 2 0 -7 -11 -1 -25 14 -23 25 -29 38 -26 56 0 5 -2 7
-7 7 -28 -5 -52 2 -46 14 6 9 4 9 -8 -1 -12 -9 -18 -10 -23 -2 -5 8 -11 8 -21
-1 -8 -6 -15 -8 -16 -3 0 5 -2 14 -3 19 -2 6 -3 16 -4 24 -1 8 -7 11 -17 7
-15 -6 -15 -4 -3 11 12 15 12 16 -3 11 -22 -9 -30 2 -15 20 10 13 9 15 -5 9
-13 -5 -24 5 -45 40 l-27 46 34 29 c19 15 35 28 36 28 1 0 39 -53 84 -117z
m4571 107 c10 -6 19 -16 19 -23 0 -8 -3 -8 -9 2 -5 7 -13 11 -19 7 -6 -3 -14
-1 -17 5 -4 5 -13 8 -21 5 -8 -3 -14 -1 -14 4 0 13 36 13 61 0z m-4038 -34
c-8 -27 -6 -63 6 -84 8 -14 9 -12 7 8 -1 14 -5 31 -9 37 -4 6 -2 15 5 19 6 4
14 2 16 -4 5 -15 32 -16 32 0 0 16 11 3 15 -19 6 -29 6 -29 15 -8 7 17 9 17 9
3 1 -10 -8 -23 -19 -30 -25 -16 -25 -25 1 -33 13 -4 18 -12 15 -22 -5 -13 -1
-14 24 -10 17 4 30 2 30 -3 0 -30 -100 2 -138 43 -27 29 -38 124 -15 124 9 0
11 -7 6 -21z m1840 -13 c-7 -51 -13 -55 -13 -10 0 35 -1 37 -32 36 -31 -2 -31
-2 -5 -6 15 -2 27 -9 27 -14 0 -6 -4 -8 -9 -4 -11 6 -43 -34 -35 -46 2 -4 0
-10 -6 -14 -6 -4 -10 9 -11 32 -1 34 -2 35 -9 13 l-8 -25 -1 28 c-1 15 4 27
12 27 8 0 7 4 -3 10 -11 7 1 10 41 10 l57 0 -5 -37z m-1683 -30 c0 -2 -7 2
-15 11 -8 8 -15 23 -15 33 0 13 4 10 15 -11 8 -15 15 -30 15 -33z m1088 50
l-118 -4 1 -32 c0 -30 1 -31 11 -9 10 20 18 22 80 22 92 0 128 -19 128 -67 0
-23 -2 -23 -115 -23 l-115 0 0 60 0 60 123 -2 122 -2 -117 -3z m300 0 l-67 -4
-4 -32 c-4 -31 -4 -31 -5 6 l-2 37 73 -2 72 -2 -67 -3z m2147 -31 c6 -4 10
-14 10 -22 0 -8 4 -18 10 -22 6 -5 3 -8 -7 -8 -16 0 -23 -11 -19 -32 0 -5 -3
-8 -9 -8 -5 0 -10 7 -10 15 0 8 -5 15 -11 15 -7 0 -9 10 -5 28 l6 27 -15 -25
c-8 -14 -14 -19 -15 -12 0 13 35 52 48 52 4 0 12 -4 17 -8z m-4547 -14 c19
-19 14 -29 -8 -16 -24 15 -35 5 -20 -19 10 -16 11 -16 6 0 -3 9 -1 17 4 17 6
0 10 -9 10 -20 0 -11 -7 -20 -15 -20 -8 0 -15 6 -15 14 0 8 -5 18 -12 22 -8 5
-9 2 -4 -11 5 -15 4 -16 -8 -6 -13 11 -13 15 2 32 19 22 42 25 60 7z m4862 0
c0 6 5 12 11 12 8 0 8 -4 -1 -14 -13 -16 -44 -10 -34 6 4 6 10 5 15 -3 6 -10
9 -11 9 -1z m-3870 -18 c0 -5 -5 -10 -11 -10 -5 0 -7 5 -4 10 3 6 8 10 11 10
2 0 4 -4 4 -10z m44 -30 c-6 -6 -10 -3 -10 10 0 13 4 16 10 10 7 -7 7 -13 0
-20z m1293 -2 c-3 -8 -6 -5 -6 6 -1 11 2 17 5 13 3 -3 4 -12 1 -19z m-1259 0
c-2 -7 4 -12 12 -10 10 2 6 -6 -9 -22 -25 -27 -61 -35 -61 -15 0 7 -8 18 -17
25 -11 8 -13 13 -6 14 7 0 18 -9 25 -20 7 -11 16 -20 21 -20 4 0 5 5 1 12 -4
7 -3 8 4 4 7 -4 13 -2 13 3 1 6 3 16 4 21 1 6 3 12 4 15 3 11 11 4 9 -7z
m1365 -5 c-18 -2 -48 -2 -65 0 -18 2 -4 4 32 4 36 0 50 -2 33 -4z m-2743 -25
c24 -13 52 -35 63 -49 40 -55 40 -154 0 -207 -20 -27 -53 -45 -38 -22 5 9 4
11 -4 6 -6 -4 -9 -12 -5 -17 8 -13 -58 -39 -99 -39 -72 0 -132 42 -162 112
-20 49 -19 84 4 133 44 97 145 131 241 83z m1278 -3 c-3 -3 -9 2 -12 12 -6 14
-5 15 5 6 7 -7 10 -15 7 -18z m667 3 c-11 -6 -33 -27 -50 -45 l-30 -34 -184 3
-184 3 37 37 38 38 186 3 c103 1 192 3 197 4 6 2 1 -3 -10 -9z m2592 -38 c45
-27 66 -72 59 -125 -4 -23 -14 -51 -22 -61 -9 -11 -12 -12 -8 -4 7 13 5 13 -9
1 -9 -7 -17 -10 -17 -5 0 5 -34 9 -74 9 -74 0 -75 0 -58 -20 11 -13 7 -11 -11
4 -108 96 17 277 140 201z m-3897 -61 c0 -6 -4 -7 -10 -4 -5 3 -10 11 -10 16
0 6 5 7 10 4 6 -3 10 -11 10 -16z m1487 -11 c34 -32 32 -99 -3 -127 -26 -21
-67 -27 -99 -15 -26 10 -48 62 -40 100 11 60 96 85 142 42z m-1426 3 c15 -3
19 -34 7 -49 -10 -12 -10 -14 0 -8 8 5 12 1 12 -13 0 -11 5 -23 10 -26 6 -4 8
-11 4 -16 -3 -5 -10 -7 -15 -3 -5 3 -7 10 -4 15 4 5 -1 9 -10 9 -9 0 -14 4
-10 9 3 6 -1 16 -8 23 -8 7 -12 20 -9 30 3 12 -1 18 -12 18 -9 0 -16 4 -16 9
0 7 23 8 51 2z m4373 -6 c20 -21 9 -45 -20 -45 -32 0 -43 29 -19 46 23 17 20
17 39 -1z m-2575 -12 c-27 -4 -39 -25 -39 -70 0 -15 -6 -23 -17 -24 -10 -1
-43 -3 -73 -5 -43 -4 -52 -2 -42 8 17 17 15 45 -3 52 -25 9 -17 26 13 28 18 1
12 3 -18 8 -30 5 -4 7 80 7 69 0 113 -2 99 -4z m2847 -25 c4 -13 -10 -46 -41
-101 -168 -290 -421 -585 -708 -825 -98 -81 -122 -93 -145 -70 -26 26 -9 49
101 141 159 135 262 239 408 415 120 144 220 284 284 397 15 28 34 55 42 61
19 16 51 6 59 -18z m-3059 -55 c-2 -16 -4 -5 -4 22 0 28 2 40 4 28 2 -13 2
-35 0 -50z m-1167 27 c0 -5 -4 -10 -10 -10 -5 0 -10 5 -10 10 0 6 5 10 10 10
6 0 10 -4 10 -10z m-67 -20 c4 0 6 4 3 8 -3 5 2 9 10 9 8 0 17 -11 20 -24 4
-12 11 -23 16 -23 6 0 8 7 4 15 -5 13 29 15 266 15 149 0 269 -2 266 -5 -3 -3
-99 -6 -214 -6 -248 0 -308 -5 -300 -25 11 -27 -13 -23 -58 13 -25 19 -46 38
-46 41 0 3 5 1 12 -6 7 -7 16 -12 21 -12z m459 13 c-73 -2 -190 -2 -260 0 -70
1 -10 3 133 3 143 0 200 -2 127 -3z m-1149 -60 c20 -19 24 -58 5 -47 -9 5 -9
2 1 -9 9 -12 10 -17 2 -17 -7 0 -9 -5 -5 -12 5 -8 2 -9 -10 -5 -10 4 -15 3
-11 -3 8 -13 -30 -31 -52 -23 -52 18 -77 69 -50 104 31 40 82 46 120 12z
m4515 15 c7 -7 12 -21 12 -33 0 -12 -5 -26 -12 -33 -17 -17 -65 -15 -72 4 -16
41 1 74 39 74 12 0 26 -5 33 -12z m-4114 -37 c-2 -3 -12 3 -22 13 -16 17 -16
18 5 5 12 -7 20 -15 17 -18z m875 13 c2 -2 -102 -4 -232 -4 -130 0 -237 3
-237 8 0 7 461 4 469 -4z m-801 -50 c2 -30 0 -35 -12 -25 -7 6 -11 22 -8 36 6
36 17 31 20 -11z m3357 -41 c-159 -145 -446 -334 -650 -428 -237 -109 -562
-189 -811 -200 -120 -5 -85 2 125 24 58 6 156 23 219 37 410 92 757 270 1077
552 44 39 82 68 85 65 3 -3 -17 -25 -45 -50z m-3323 -25 c-7 -7 -10 -5 -7 8 5
29 6 30 12 16 3 -8 1 -18 -5 -24z m55 5 c-8 -7 -37 9 -31 19 3 5 12 4 20 -3 8
-6 13 -14 11 -16z m148 -67 c98 -84 300 -213 453 -290 142 -72 399 -164 544
-194 51 -11 158 -27 238 -36 203 -22 219 -25 105 -20 -402 18 -800 156 -1177
407 -86 58 -160 101 -165 96 -4 -4 -15 -3 -23 2 -13 9 -12 10 3 5 11 -3 17 0
17 9 0 9 -6 12 -17 8 -12 -5 -15 -2 -10 10 4 12 2 14 -10 10 -10 -4 -14 -2 -9
5 6 11 -10 27 -29 27 -5 0 -11 8 -13 19 -5 24 5 18 93 -58z m1321 56 c-55 -1
-103 1 -107 5 -5 4 40 6 99 3 l107 -5 -99 -3z m367 1 c-7 -2 -21 -2 -30 0 -10
3 -4 5 12 5 17 0 24 -2 18 -5z m-1825 -28 c14 -31 15 -35 4 -35 -4 0 -13 14
-19 30 -14 36 -1 40 15 5z m1220 -22 c-1 -44 -2 -45 -5 -10 l-4 37 -247 1
c-296 1 -614 8 -621 14 -2 3 194 5 437 5 l442 0 -2 -47z m-1253 19 c-3 -3 -11
0 -18 7 -9 10 -8 11 6 5 10 -3 15 -9 12 -12z m4611 -57 c15 -15 23 -32 20 -41
-3 -9 -6 -19 -6 -22 0 -4 -20 -7 -45 -8 -25 0 -45 3 -45 7 0 15 -43 17 -57 3
-21 -21 -26 -12 -13 22 18 47 40 64 82 64 28 0 46 -7 64 -25z m-5444 3 c8 -7
37 -42 64 -78 26 -36 68 -89 91 -118 44 -54 54 -91 29 -111 -23 -20 -57 5
-129 95 -120 151 -139 190 -99 213 22 13 25 13 44 -1z m4640 -5 c40 -36 10
-103 -47 -103 -39 0 -55 16 -55 54 0 57 60 87 102 49z m-5054 -9 c29 -20 31
-79 4 -86 -10 -3 -27 1 -38 10 -18 14 -18 14 4 9 12 -3 20 -1 16 4 -3 5 -12 9
-20 9 -8 0 -13 4 -10 9 4 5 -9 6 -28 1 -29 -6 -34 -5 -29 9 18 49 60 64 101
35z m1366 -5 c-4 -7 -44 0 -44 7 0 2 11 3 24 2 14 -1 23 -5 20 -9z m1074 -6
c-26 -2 -71 -2 -100 0 -29 2 -8 3 47 3 55 0 79 -1 53 -3z m-1030 -23 c12 0 13
-3 4 -12 -9 -9 -5 -18 19 -40 44 -40 25 -35 -27 8 -37 30 -42 39 -32 51 8 10
14 11 16 4 2 -6 11 -11 20 -11z m1082 -103 c0 -10 -23 -13 -92 -12 -53 0 -96
-4 -100 -10 -5 -6 -11 -6 -20 3 -6 6 -23 13 -37 14 -15 1 24 5 84 8 61 3 122
7 138 8 16 1 27 -3 27 -11z m-2225 -22 c0 -23 -34 -33 -45 -14 -13 20 1 40 24
37 13 -2 21 -10 21 -23z m1748 18 c-7 -2 -21 -2 -30 0 -10 3 -4 5 12 5 17 0
24 -2 18 -5z m-1145 -49 c43 -30 14 -96 -43 -96 -35 0 -48 15 -48 53 0 52 46
74 91 43z m3995 -5 c20 -28 15 -49 -14 -68 l-24 -16 18 28 17 27 -34 0 c-25 0
-36 -5 -38 -17 -3 -15 -5 -14 -10 4 -14 51 55 85 85 42z m-2403 5 c-34 -7
-108 -8 -103 -1 2 4 30 6 61 6 31 -1 50 -3 42 -5z m-1162 -33 c8 -5 12 -21 10
-37 -3 -25 -7 -29 -33 -29 -24 0 -31 5 -33 23 -6 39 25 63 56 43z m3268 -6
c17 -43 -29 -92 -61 -65 -18 15 -19 52 -3 68 17 17 57 15 64 -3z m254 -15 c0
-5 -2 -10 -4 -10 -3 0 -8 5 -11 10 -3 6 -1 10 4 10 6 0 11 -4 11 -10z m-4702
-32 c7 -7 12 -24 12 -38 0 -34 17 -50 52 -50 54 0 45 -56 -10 -62 -20 -2 -29
-11 -35 -33 -23 -75 -47 -81 -63 -15 -9 40 -14 45 -42 48 -64 7 -64 58 1 64
26 3 32 8 39 38 16 66 22 72 46 48z m2229 6 c-3 -3 -12 -4 -19 -1 -8 3 -5 6 6
6 11 1 17 -2 13 -5z m3171 -70 c30 -21 29 -43 -3 -36 -14 2 -25 8 -25 13 0 5
-7 6 -16 2 -9 -3 -13 -12 -9 -22 5 -13 4 -14 -6 -3 -16 15 -39 16 -39 1 0 -5
4 -8 8 -5 5 3 9 -1 9 -9 0 -8 -6 -15 -14 -15 -20 0 -16 47 7 70 24 24 57 26
88 4z m-3937 -54 c37 -20 14 -90 -30 -90 -40 0 -54 49 -24 82 19 21 27 22 54
8z m2699 -14 c28 -35 -11 -93 -47 -70 -36 22 -23 84 17 84 10 0 23 -7 30 -14z
m-3818 -83 c34 -31 23 -42 -41 -36 -56 5 -59 4 -64 -18 -4 -22 -4 -22 -6 4 -2
55 69 88 111 50z m4106 -12 c21 -13 11 -63 -15 -72 -27 -10 -55 13 -46 39 14
40 34 50 61 33z m-3270 -33 c3 -29 -25 -52 -52 -42 -41 16 -22 77 22 72 21 -2
28 -9 30 -30z m542 2 c23 -23 25 -39 7 -64 -27 -36 -97 -14 -97 31 0 18 37 53
55 53 8 0 24 -9 35 -20z m2192 3 c24 -22 23 -58 -3 -77 -23 -16 -47 -12 -66
12 -18 22 -16 39 7 62 24 24 38 25 62 3z m-1862 -137 c30 -37 -17 -94 -64 -77
-24 9 -34 55 -15 77 15 18 63 18 79 0z m1548 2 c16 -16 15 -53 -2 -67 -8 -7
-27 -11 -43 -9 -51 6 -41 88 11 88 12 0 27 -5 34 -12z m1590 -36 c27 -35 2
-82 -43 -82 -33 0 -60 41 -46 69 22 41 61 46 89 13z m-4700 -24 c17 -17 15
-38 -3 -38 -17 0 -38 -36 -29 -51 4 -7 -1 -10 -12 -7 -10 2 -25 15 -33 30 -21
38 -2 78 37 78 15 0 33 -5 40 -12z m1948 -43 c11 -16 11 -25 1 -45 -23 -45
-97 -35 -97 13 0 52 68 74 96 32z m765 15 c23 -13 26 -62 5 -79 -26 -22 -70
-9 -81 23 -8 24 -6 31 14 47 27 22 35 23 62 9z m-359 -20 c18 -14 20 -21 10
-32 -6 -8 -9 -18 -5 -22 4 -3 -4 -5 -18 -2 -13 2 -23 9 -21 16 2 8 -5 11 -21
8 -13 -2 -29 1 -35 9 -19 20 -34 16 -27 -7 4 -12 2 -20 -5 -20 -6 0 -10 10 -8
23 2 18 9 22 35 21 18 0 30 3 27 8 -3 4 -10 6 -15 3 -5 -4 -9 -2 -9 3 0 17 69
11 92 -8z m-1570 -34 c10 -7 14 -17 10 -21 -4 -5 -2 -5 4 -2 6 4 81 -28 165
-70 85 -42 189 -91 232 -109 189 -81 489 -157 722 -184 124 -14 132 -16 140
-41 9 -28 -12 -49 -51 -49 -59 0 -266 29 -394 56 -270 56 -613 192 -805 318
-93 61 -99 68 -90 96 7 23 41 26 67 6z m1473 -20 c1 -18 -3 -22 -18 -18 -11 3
-23 -1 -28 -9 -7 -11 -9 -11 -9 3 0 10 9 18 23 20 14 2 21 9 21 21 -1 10 1 15
5 12 3 -4 6 -17 6 -29z m-2611 -32 c7 -19 -10 -44 -31 -44 -17 0 -27 24 -19
45 7 20 42 19 50 -1z m5352 1 c7 -18 -13 -45 -33 -45 -17 0 -27 24 -19 45 7
20 45 19 52 0z m-1366 -80 c7 -8 13 -26 13 -40 0 -35 -21 -55 -57 -55 -38 0
-51 8 -60 36 -15 50 71 99 104 59z m-252 -97 c17 -17 15 -38 -5 -60 -20 -23
-249 -97 -404 -132 -145 -32 -335 -58 -396 -54 -44 3 -48 5 -51 30 -4 38 17
46 165 63 189 23 361 60 518 114 160 56 157 55 173 39z m-1034 -144 c33 -33
10 -130 -25 -108 -8 4 -9 3 -5 -4 5 -8 -1 -12 -16 -12 -19 0 -20 2 -8 11 12 8
9 9 -12 5 -21 -5 -30 -1 -38 13 -15 29 -12 72 7 93 20 22 76 24 97 2z"/>
<path d="M7577 7040 c10 -11 19 -20 21 -20 1 0 -2 9 -8 20 -6 11 -15 20 -20
20 -6 0 -2 -9 7 -20z"/>
<path d="M7603 7013 c-23 -9 -15 -32 9 -25 12 3 17 7 10 10 -7 2 -10 8 -6 13
6 10 5 10 -13 2z"/>
<path d="M3967 6479 c7 -7 15 -10 18 -7 3 3 -2 9 -12 12 -14 6 -15 5 -6 -5z"/>
<path d="M4005 6471 c-3 -5 2 -11 10 -15 8 -3 17 -1 20 3 3 5 -2 11 -10 15 -8
3 -17 1 -20 -3z"/>
<path d="M3980 6434 c0 -8 5 -12 10 -9 6 4 8 11 5 16 -9 14 -15 11 -15 -7z"/>
<path d="M3953 4862 c0 -8 9 -24 19 -34 22 -22 36 -24 18 -3 -7 8 -9 15 -4 16
5 0 0 4 -11 9 -19 8 -19 9 3 9 12 1 22 -4 22 -10 0 -5 5 -7 11 -4 14 9 8 14
-28 24 -24 7 -30 6 -30 -7z"/>
<path d="M4033 4855 c-6 -14 -7 -23 -2 -19 5 3 9 -2 9 -11 0 -9 5 -13 10 -10
6 3 10 1 10 -4 0 -17 14 -13 27 8 10 15 9 20 -2 25 -9 3 -12 0 -8 -10 3 -7 1
-14 -4 -14 -17 0 -23 13 -12 26 10 13 5 34 -9 34 -4 0 -12 -11 -19 -25z"/>
<path d="M4080 4871 c0 -5 5 -13 10 -16 6 -3 10 -2 10 4 0 5 -4 13 -10 16 -5
3 -10 2 -10 -4z"/>
<path d="M3896 4841 c-10 -15 5 -41 23 -41 15 1 15 2 0 13 -9 7 -14 18 -12 25
5 14 -3 16 -11 3z"/>
<path d="M4110 4830 c0 -5 5 -10 10 -10 6 0 10 5 10 10 0 6 -4 10 -10 10 -5 0
-10 -4 -10 -10z"/>
<path d="M3833 4823 c-15 -5 -17 -23 -4 -23 5 0 11 7 15 15 3 8 4 15 3 14 -1
0 -8 -3 -14 -6z"/>
<path d="M4087 4786 c-4 -10 -1 -13 9 -9 15 6 19 23 5 23 -5 0 -11 -7 -14 -14z"/>
<path d="M3925 4780 c3 -5 8 -10 11 -10 2 0 4 5 4 10 0 6 -5 10 -11 10 -5 0
-7 -4 -4 -10z"/>
<path d="M3970 4759 c0 -5 5 -7 10 -4 6 3 10 8 10 11 0 2 -4 4 -10 4 -5 0 -10
-5 -10 -11z"/>
<path d="M4110 4730 c0 -5 5 -10 10 -10 6 0 10 5 10 10 0 6 -4 10 -10 10 -5 0
-10 -4 -10 -10z"/>
<path d="M5016 4481 c-12 -5 -15 -10 -9 -14 6 -4 16 0 23 8 14 17 13 17 -14 6z"/>
<path d="M4842 4460 l-22 -19 21 -6 c12 -4 26 -2 33 5 8 10 5 11 -14 5 -25 -8
-25 -8 -6 14 23 26 19 27 -12 1z"/>
<path d="M4378 4453 c7 -3 16 -2 19 1 4 3 -2 6 -13 5 -11 0 -14 -3 -6 -6z"/>
<path d="M4772 4429 c-8 -12 -9 -18 -3 -14 6 3 11 -1 11 -9 0 -8 4 -18 10 -21
6 -4 7 2 1 17 -4 13 -6 29 -4 36 7 19 -1 14 -15 -9z"/>
<path d="M4855 4414 c6 -2 10 -21 9 -42 l-3 -37 8 35 c8 39 5 50 -12 49 -7 0
-8 -2 -2 -5z"/>
<path d="M4345 4400 c3 -5 11 -10 16 -10 6 0 7 5 4 10 -3 6 -11 10 -16 10 -6
0 -7 -4 -4 -10z"/>
<path d="M4205 4390 c3 -5 8 -10 11 -10 2 0 4 5 4 10 0 6 -5 10 -11 10 -5 0
-7 -4 -4 -10z"/>
<path d="M4842 4380 c0 -14 2 -19 5 -12 2 6 2 18 0 25 -3 6 -5 1 -5 -13z"/>
<path d="M6420 4839 c0 -5 -4 -7 -10 -4 -5 3 -10 1 -10 -5 0 -13 26 -24 39
-16 6 4 8 13 4 21 -6 17 -23 20 -23 4z"/>
<path d="M6211 4658 c-14 -23 -14 -23 8 -4 22 20 25 26 13 26 -4 0 -13 -10
-21 -22z"/>
<path d="M6582 6479 c-113 -56 -124 -214 -19 -290 53 -38 136 -41 188 -6 111
75 105 236 -11 295 -55 28 -103 28 -158 1z m155 -84 c33 -38 30 -86 -6 -127
-24 -27 -36 -33 -71 -33 -35 0 -47 6 -71 33 -41 46 -40 94 3 134 29 27 38 30
77 25 33 -4 52 -13 68 -32z"/>
<path d="M6639 6362 c-17 -14 -20 -25 -16 -44 13 -52 77 -42 77 12 0 41 -30
56 -61 32z"/>
<path d="M7438 5551 c-17 -20 -18 -44 -4 -58 4 -4 6 3 4 17 -2 15 2 24 9 23 6
-2 11 6 10 17 -1 11 -2 20 -2 20 0 0 -8 -9 -17 -19z"/>
<path d="M2190 6282 c0 -4 10 -9 22 -9 18 -2 20 0 8 7 -18 12 -30 13 -30 2z"/>
<path d="M4466 6111 c-25 -28 -17 -72 16 -90 25 -14 29 -14 55 5 37 28 40 48
9 79 -30 30 -57 32 -80 6z"/>
<path d="M5702 6114 c-27 -18 -31 -78 -6 -88 26 -10 69 -7 82 6 16 16 15 63 0
76 -25 19 -54 22 -76 6z"/>
<path d="M2634 6004 c-18 -14 -18 -15 4 -4 12 6 22 13 22 15 0 8 -5 6 -26 -11z"/>
<path d="M2128 5833 c6 -2 18 -2 25 0 6 3 1 5 -13 5 -14 0 -19 -2 -12 -5z"/>
<path d="M6527 5884 c3 -8 11 -13 18 -10 10 3 12 -6 10 -34 -3 -32 -1 -37 10
-27 7 7 11 16 8 20 -3 5 3 17 12 27 11 12 13 20 6 25 -6 3 -11 -1 -11 -9 0
-13 -4 -12 -20 4 -24 24 -42 26 -33 4z"/>
<path d="M6860 5920 c0 -5 5 -10 11 -10 5 0 7 5 4 10 -3 6 -8 10 -11 10 -2 0
-4 -4 -4 -10z"/>
<path d="M6808 5913 c-18 -5 -33 -33 -18 -33 6 0 10 -7 10 -15 0 -17 26 -21
32 -4 2 5 12 11 23 13 10 1 21 8 23 15 5 14 -18 11 -36 -6 -14 -13 -45 -6 -36
8 3 5 9 7 13 5 4 -3 8 1 8 9 0 8 -1 14 -1 14 -1 -1 -8 -3 -18 -6z"/>
<path d="M3075 5795 c-42 -41 -31 -105 22 -133 44 -24 103 21 103 78 0 72 -76
105 -125 55z"/>
<path d="M3125 5180 c-3 -5 -1 -10 4 -10 6 0 11 5 11 10 0 6 -2 10 -4 10 -3 0
-8 -4 -11 -10z"/>
<path d="M3183 5133 c0 -9 4 -10 14 -2 7 6 13 12 13 14 0 1 -6 2 -13 2 -8 0
-14 -6 -14 -14z"/>
<path d="M4913 5554 c-15 -24 -15 -29 -2 -53 11 -20 22 -26 49 -26 27 0 38 6
49 26 13 24 13 29 -2 53 -12 18 -26 26 -47 26 -21 0 -35 -8 -47 -26z"/>
<path d="M5237 5562 c-24 -27 -21 -58 9 -81 21 -17 30 -19 48 -9 28 15 36 28
36 60 0 45 -62 65 -93 30z"/>
<path d="M2755 5135 c-73 -72 28 -178 109 -114 20 16 26 29 26 59 0 72 -84
106 -135 55z"/>
<path d="M7309 5147 c-42 -32 -49 -81 -18 -121 35 -44 108 -33 137 21 18 34
14 52 -17 84 -31 31 -74 38 -102 16z"/>
<path d="M7780 4800 c-9 -6 -10 -10 -3 -10 6 0 15 5 18 10 8 12 4 12 -15 0z"/>
<path d="M5033 4793 c-17 -6 -17 -20 0 -20 8 0 14 6 14 14 0 7 -1 13 -1 12 -1
0 -7 -3 -13 -6z"/>
<path d="M4350 4759 c-31 -13 -32 -13 -24 -33 8 -21 26 -21 22 2 -2 11 4 18
20 20 12 2 22 8 22 13 0 11 -8 11 -40 -2z"/>
<path d="M5025 4751 c-3 -6 -15 -8 -26 -6 -17 4 -19 2 -9 -10 7 -9 8 -15 2
-15 -5 0 -12 -7 -16 -15 -4 -12 -2 -13 14 -2 11 6 20 15 20 20 0 4 5 5 12 1 7
-5 8 -3 3 6 -6 9 -4 12 7 8 9 -4 15 0 15 8 0 16 -13 19 -22 5z"/>
<path d="M4436 4741 c-3 -5 3 -16 13 -25 16 -14 20 -15 30 -2 7 8 8 16 4 19
-22 12 -43 15 -47 8z"/>
<path d="M4770 4678 c0 -5 -4 -7 -8 -4 -4 2 -9 -4 -9 -15 -1 -11 3 -19 8 -17
6 2 10 8 9 13 -1 6 9 13 22 16 l23 5 -22 6 c-13 3 -23 2 -23 -4z"/>
<path d="M4655 4674 c59 -18 85 -21 85 -10 0 9 -16 13 -47 13 -27 0 -43 -1
-38 -3z"/>
<path d="M4816 4663 c-5 -12 -4 -13 7 -5 8 7 16 9 19 6 3 -3 8 -1 11 3 3 5 -3
9 -13 10 -10 1 -21 -5 -24 -14z"/>
<path d="M4988 4673 c7 -3 16 -2 19 1 4 3 -2 6 -13 5 -11 0 -14 -3 -6 -6z"/>
<path d="M4934 4663 c5 -9 1 -13 -11 -14 -24 -2 -25 -2 -45 6 -11 4 -18 3 -18
-5 0 -6 5 -8 10 -5 6 3 10 1 10 -5 0 -6 4 -9 9 -5 5 3 12 1 16 -5 4 -6 12 -5
21 4 8 9 22 12 32 9 18 -7 17 -5 -12 17 -13 10 -17 10 -12 3z"/>
<path d="M4663 4646 c3 -8 1 -17 -6 -20 -7 -2 -4 -5 6 -5 11 -1 17 6 17 19 0
11 -5 20 -11 20 -6 0 -9 -6 -6 -14z"/>
<path d="M4690 4636 c0 -9 7 -16 16 -16 17 0 14 22 -4 28 -7 2 -12 -3 -12 -12z"/>
<path d="M4980 4639 c0 -5 5 -7 10 -4 6 3 10 8 10 11 0 2 -4 4 -10 4 -5 0 -10
-5 -10 -11z"/>
<path d="M5045 4639 c-4 -6 -5 -12 -2 -15 2 -3 7 2 10 11 7 17 1 20 -8 4z"/>
<path d="M4730 4630 c0 -5 5 -10 10 -10 6 0 10 5 10 10 0 6 -4 10 -10 10 -5 0
-10 -4 -10 -10z"/>
<path d="M4261 4704 c0 -11 3 -14 6 -6 3 7 2 16 -1 19 -3 4 -6 -2 -5 -13z"/>
<path d="M2405 4560 c-3 -5 2 -18 12 -29 15 -16 20 -17 31 -5 8 8 9 14 2 15
-5 1 -14 3 -20 4 -5 1 -13 3 -17 4 -5 1 -1 6 7 11 9 6 10 10 3 10 -6 0 -15 -4
-18 -10z"/>
<path d="M3272 4640 c-38 -23 -66 -81 -56 -113 3 -12 18 -34 32 -49 66 -71
182 -24 182 72 0 42 -20 75 -60 95 -39 20 -59 19 -98 -5z m82 -76 c9 -22 -1
-34 -29 -34 -29 0 -41 16 -25 35 16 20 46 19 54 -1z"/>
<path d="M2561 4421 c-10 -7 -7 -9 12 -8 14 1 23 5 20 10 -6 9 -15 9 -32 -2z"/>
<path d="M6024 4174 c-18 -14 -18 -15 4 -4 12 6 22 13 22 15 0 8 -5 6 -26 -11z"/>
<path d="M6074 4173 c2 -10 6 -17 9 -15 4 1 16 2 27 2 11 0 20 7 20 15 0 18
-17 20 -23 3 -3 -10 -7 -10 -20 0 -13 11 -15 10 -13 -5z"/>
<path d="M5317 4065 c-25 -19 -55 -48 -66 -64 -35 -49 -23 -47 15 2 20 26 39
47 43 47 8 1 68 50 60 50 -3 0 -27 -16 -52 -35z"/>
<path d="M5468 4093 c6 -2 18 -2 25 0 6 3 1 5 -13 5 -14 0 -19 -2 -12 -5z"/>
<path d="M7300 4168 c-84 -57 -49 -178 51 -178 33 0 47 6 75 34 55 55 41 122
-32 152 -45 19 -55 18 -94 -8z m80 -53 c20 -25 8 -50 -25 -50 -21 0 -31 5 -33
18 -4 21 14 47 33 47 7 0 18 -7 25 -15z"/>
<path d="M3562 4099 c-70 -21 -94 -114 -43 -171 26 -29 35 -33 81 -33 46 0 55
4 81 33 20 23 29 43 29 68 0 21 4 33 10 29 6 -3 7 1 4 10 -4 9 -9 13 -12 10
-3 -2 -12 5 -20 16 -13 19 -71 50 -89 48 -4 0 -23 -5 -41 -10z"/>
<path d="M3740 4090 c0 -5 5 -10 11 -10 5 0 7 5 4 10 -3 6 -8 10 -11 10 -2 0
-4 -4 -4 -10z"/>
<path d="M3740 4041 c0 -10 19 -25 25 -20 1 2 -3 10 -11 17 -8 7 -14 8 -14 3z"/>
<path d="M3757 4003 c-10 -9 -9 -23 1 -23 5 0 9 7 9 15 0 17 -1 18 -10 8z"/>
<path d="M3728 3967 c7 -8 9 -17 5 -20 -3 -4 -1 -7 5 -7 18 0 14 27 -4 34 -13
5 -14 4 -6 -7z"/>
<path d="M3675 3840 c-3 -5 -1 -10 4 -10 6 0 11 5 11 10 0 6 -2 10 -4 10 -3 0
-8 -4 -11 -10z"/>
<path d="M3636 3807 c3 -10 9 -15 12 -12 3 3 0 11 -7 18 -10 9 -11 8 -5 -6z"/>
<path d="M3741 3804 c0 -11 3 -14 6 -6 3 7 2 16 -1 19 -3 4 -6 -2 -5 -13z"/>
<path d="M2104 3894 c-16 -24 -16 -27 3 -52 26 -35 56 -39 82 -11 26 28 27 51
3 72 -28 26 -69 21 -88 -9z"/>
<path d="M4081 3866 c-8 -10 -9 -16 -1 -21 5 -3 10 -2 10 4 0 6 8 7 17 4 15
-6 14 -8 -5 -16 -12 -6 -22 -14 -22 -18 0 -5 11 -3 25 3 30 13 31 20 6 42 -16
14 -20 15 -30 2z"/>
<path d="M4128 3873 c7 -3 16 -2 19 1 4 3 -2 6 -13 5 -11 0 -14 -3 -6 -6z"/>
<path d="M4345 3827 c5 -11 22 -15 62 -16 65 0 67 8 2 10 -24 1 -50 6 -57 12
-9 7 -11 6 -7 -6z"/>
<path d="M4225 3820 c-2 -3 5 -7 16 -7 10 -1 19 2 19 6 0 9 -29 10 -35 1z"/>
<path d="M4498 3813 c12 -2 32 -2 45 0 12 2 2 4 -23 4 -25 0 -35 -2 -22 -4z"/>
<path d="M3093 3777 c0 -8 6 -14 14 -14 9 0 10 4 2 14 -6 7 -12 13 -14 13 -1
0 -2 -6 -2 -13z"/>
<path d="M3065 3770 c-4 -6 -11 -8 -16 -5 -5 3 -6 -1 -3 -9 7 -18 31 -11 31 9
0 18 -3 19 -12 5z"/>
<path d="M3060 3716 c0 -2 7 -9 15 -16 13 -11 14 -10 9 4 -5 14 -24 23 -24 12z"/>
<path d="M3162 3630 c0 -14 2 -19 5 -12 2 6 2 18 0 25 -3 6 -5 1 -5 -13z"/>
<path d="M3361 3443 c3 -20 -2 -27 -11 -13 -7 10 -10 11 -10 2 0 -15 22 -25
48 -20 19 3 19 4 -4 21 -13 10 -24 15 -23 10z"/>
<path d="M3410 3388 c0 -9 6 -19 13 -21 10 -4 10 -6 0 -6 -18 -1 -16 -21 2
-21 8 0 15 4 15 10 0 5 8 7 18 3 9 -3 6 3 -8 13 -14 10 -28 23 -32 28 -5 7 -8
4 -8 -6z"/>
<path d="M3740 3720 c-13 -9 -13 -11 0 -20 12 -8 13 -11 1 -19 -9 -6 -10 -11
-2 -15 6 -4 11 -4 11 0 0 4 9 -1 20 -11 11 -10 20 -15 20 -10 0 4 -8 14 -17
21 -17 13 -17 15 -2 27 14 10 14 14 3 25 -16 14 -15 14 -34 2z m25 -10 c3 -5
1 -10 -4 -10 -6 0 -11 5 -11 10 0 6 2 10 4 10 3 0 8 -4 11 -10z"/>
<path d="M7380 3741 c0 -6 4 -12 8 -15 5 -3 9 1 9 9 0 8 -4 15 -9 15 -4 0 -8
-4 -8 -9z"/>
<path d="M2432 3609 c-41 -12 -72 -60 -72 -112 0 -31 7 -46 34 -73 28 -28 42
-34 76 -34 34 0 48 6 76 34 29 29 34 41 34 81 0 38 -5 52 -29 76 -16 16 -36
29 -44 29 -9 0 -21 2 -29 4 -7 2 -28 0 -46 -5z"/>
<path d="M2540 3373 c0 -10 -16 -13 -58 -13 -13 0 -20 -5 -17 -10 8 -13 42
-13 50 0 4 6 10 8 15 5 10 -6 25 14 16 22 -3 4 -6 2 -6 -4z"/>
<path d="M4669 3433 c-13 -16 -12 -17 4 -4 16 13 21 21 13 21 -2 0 -10 -8 -17
-17z"/>
<path d="M4560 3426 c0 -2 7 -7 16 -10 8 -3 12 -2 9 4 -6 10 -25 14 -25 6z"/>
<path d="M3245 3520 c3 -5 8 -10 11 -10 2 0 4 5 4 10 0 6 -5 10 -11 10 -5 0
-7 -4 -4 -10z"/>
<path d="M2824 3329 c-4 -7 -3 -9 4 -5 6 3 15 -2 21 -11 6 -10 11 -13 11 -7 0
20 -27 37 -36 23z"/>
<path d="M7360 3390 c0 -5 5 -10 11 -10 5 0 7 5 4 10 -3 6 -8 10 -11 10 -2 0
-4 -4 -4 -10z"/>
<path d="M3585 3140 c3 -5 8 -10 11 -10 2 0 4 5 4 10 0 6 -5 10 -11 10 -5 0
-7 -4 -4 -10z"/>
<path d="M5165 2390 c3 -5 8 -10 11 -10 2 0 4 5 4 10 0 6 -5 10 -11 10 -5 0
-7 -4 -4 -10z"/>
<path d="M1940 8640 c-9 -6 -10 -10 -3 -10 6 0 15 5 18 10 8 12 4 12 -15 0z"/>
<path d="M8630 8610 c0 -5 5 -10 10 -10 6 0 10 5 10 10 0 6 -4 10 -10 10 -5 0
-10 -4 -10 -10z"/>
<path d="M9200 8500 c0 -13 7 -20 20 -20 13 0 20 7 20 20 0 13 -7 20 -20 20
-13 0 -20 -7 -20 -20z"/>
<path d="M9280 8500 c0 -19 7 -20 160 -20 153 0 160 1 160 20 0 19 -7 20 -160
20 -153 0 -160 -1 -160 -20z"/>
<path d="M10160 8380 c0 -17 7 -20 40 -20 33 0 40 3 40 20 0 17 -7 20 -40 20
-33 0 -40 -3 -40 -20z"/>
<path d="M8760 8130 c0 -5 9 -10 20 -10 11 0 20 5 20 10 0 6 -9 10 -20 10 -11
0 -20 -4 -20 -10z"/>
</g>
</svg>
