<svg xmlns="http://www.w3.org/2000/svg" viewBox="0 0 512 512"><defs><style>.cls-1{fill:#284392;}.cls-2{fill:#dfa158;}.cls-3{fill:#683027;}.cls-4{fill:#552723;}.cls-5{fill:#d9b37f;}.cls-6{fill:#efc788;}.cls-7{fill:#c2a077;}.cls-16,.cls-17,.cls-8{fill:none;stroke-linecap:round;stroke-width:10px;}.cls-8{stroke:#c2a077;}.cls-16,.cls-8{stroke-miterlimit:10;}.cls-9{fill:#415292;}.cls-10{fill:#334079;}.cls-11{fill:#62ac8d;}.cls-12{fill:#c9dcf1;}.cls-13{fill:#b4c6d5;}.cls-14{fill:#ce404a;}.cls-15{fill:#539179;}.cls-16,.cls-17{stroke:#fff;}.cls-17{stroke-linejoin:round;}</style></defs><title>Artificial Intelligence</title><g id="BULINE"><circle class="cls-1" cx="256" cy="256" r="256"/></g><g id="Icons"><path class="cls-2" d="M467.15,111.22c-1,3.31-2.07,6.6-3.22,9.84A218.94,218.94,0,0,1,454,144.71q-3.67,7.5-7.89,14.68A221.87,221.87,0,0,1,421,194a223.15,223.15,0,0,1-56.38,46,221.17,221.17,0,0,1-34.16,15.88,221.83,221.83,0,0,1-76.19,13.4,223.75,223.75,0,0,1-35.63-2.84,220.6,220.6,0,0,1-55.91-16.83q-4.77-2.15-9.41-4.52h0A223.4,223.4,0,0,1,60,155q-2.31-4.16-4.45-8.43a218.35,218.35,0,0,1-11.05-26.08c-.68-1.92-1.33-3.86-1.95-5.8a256.05,256.05,0,0,1,424.63-3.44Z"/><path class="cls-3" d="M429,231.35A140.14,140.14,0,0,0,421,194c-1.38-3.84-2.94-7.61-4.64-11.29A141.87,141.87,0,0,0,364.23,123a140.86,140.86,0,0,0-41.51-18,141.63,141.63,0,0,0-34.56-4.26H220.71a141.34,141.34,0,0,0-34.71,4.3,139.36,139.36,0,0,0-25.23,9q-5.78,2.7-11.24,5.9c-2.21,1.29-4.39,2.64-6.52,4a141.74,141.74,0,0,0-50.52,58.61q-2.61,5.63-4.73,11.5a140.05,140.05,0,0,0-7.92,37.1q-.41,5.34-.41,10.79v98.36h25.68V252.29c0-1.28,0-2.53.1-3.78,2.62,0,5.22,0,7.78-.09s5.11-.14,7.62-.25q11.29-.49,21.83-1.68,5.55-.63,10.89-1.4c3.2-.47,6.34-1,9.43-1.52q8.58-1.51,16.6-3.42,4-.94,7.87-2t7.59-2.13c1.24-.37,2.47-.74,3.68-1.12q3.66-1.14,7.17-2.34,5.27-1.8,10.21-3.72c2.2-.85,4.36-1.72,6.46-2.6,1.09-.45,2.17-.91,3.24-1.37q4.57-2,8.85-4,2.88-1.38,5.63-2.78,4.13-2.1,7.93-4.23c1.7-.94,3.34-1.88,4.95-2.83q4.81-2.82,9.08-5.62c3.55-2.32,6.83-4.59,9.83-6.78,2.06-1.51,4-3,5.79-4.39h0c.83-.64,1.62-1.28,2.39-1.9a163.37,163.37,0,0,0,13-11.64c2.41-2.45,3.66-3.92,3.79-4.06A134.24,134.24,0,0,0,303.37,189c.3.48.59,1,.88,1.44.88,1.43,1.79,2.83,2.71,4.19s1.86,2.69,2.81,4c.64.86,1.28,1.71,1.92,2.54s1.3,1.65,2,2.46c1,1.2,2,2.38,3,3.52l.88,1h0c.38.42.76.84,1.15,1.25s.68.73,1,1.09c.69.72,1.38,1.43,2.08,2.12A122.19,122.19,0,0,0,364.65,240,134.28,134.28,0,0,0,378,244.33l1.84.48c2.72.68,5.29,1.24,7.68,1.7l2.32.42,2.89.46.68.1c.9.13,1.76.24,2.56.34l1.18.14.56.06,1.07.11,1,.09.91.07.83.06,1.08.07.61,0c.85,0,1.39,0,1.59,0h.1v91.95h24.53V242.1C429.44,238.48,429.3,234.9,429,231.35Z"/><path class="cls-4" d="M296.78,176.6s-42.43,50.76-134,67a329.65,329.65,0,0,1-57.55,4.94c-.07,1.25-.1,2.5-.1,3.78v88.17H79.43V242.1a141.19,141.19,0,0,1,70.1-122C171.64,147.52,215.24,180,296.78,176.6Z"/><path class="cls-5" d="M162.76,359.32V243.58a330.49,330.49,0,0,1-57.55,4.93c-.06,1.25-.1,2.51-.1,3.78V357.6c0,82.57,67.55,151.74,150.12,151.61a149.87,149.87,0,0,0,28.61-2.77A149.94,149.94,0,0,1,162.76,359.32Z"/><path class="cls-6" d="M404.81,248.51c-2.83,0-75.24-1.41-108-71.91,0,0-42.44,50.75-134,67V359.32A149.94,149.94,0,0,0,283.84,506.44,149.94,149.94,0,0,0,404.91,359.32v-107C404.91,251,404.87,249.76,404.81,248.51Z"/><rect class="cls-7" x="229.35" y="360.07" width="48.49" height="25.54" rx="12.77"/><path class="cls-8" d="M223.5,419.05a30.1,30.1,0,0,0,60.19,0"/><path class="cls-6" d="M404.91,252.29v-3.78h-.1C404.87,249.76,404.91,251,404.91,252.29Z"/><path class="cls-9" d="M62.85,282l-1.19.69c-4.84,2.83-8,9.29-8,16.43v46.12c0,7.14,3.14,13.6,8,16.43l1.19.69a33.35,33.35,0,0,0,13.79,4.52,66,66,0,0,1,6.7.88L105.11,372V272.37l-21.77,4.25a66,66,0,0,1-6.7.88A33.35,33.35,0,0,0,62.85,282Z"/><path class="cls-10" d="M105.11,369,99,367.78c-2.21-.43-4.45-.67-6.7-.88a33.36,33.36,0,0,1-13.78-4.52l-1.19-.69c-4.85-2.83-8-9.29-8-16.43V299.14c0-7.14,3.14-13.6,8-16.43l1.19-.69A33.5,33.5,0,0,1,92.3,277.5a65.3,65.3,0,0,0,6.7-.88l6.11-1.19Z"/><path class="cls-9" d="M447.17,362.38l1.19-.69c4.84-2.83,8-9.29,8-16.43V299.14c0-7.14-3.14-13.6-8-16.43l-1.19-.69a33.35,33.35,0,0,0-13.79-4.52,66,66,0,0,1-6.7-.88l-21.77-4.25V372l21.77-4.25a66,66,0,0,1,6.7-.88A33.35,33.35,0,0,0,447.17,362.38Z"/><path class="cls-10" d="M404.91,275.43l6.11,1.19c2.21.43,4.45.67,6.7.88A33.36,33.36,0,0,1,431.5,282l1.19.69c4.85,2.83,8,9.29,8,16.43v46.12c0,7.14-3.14,13.6-8,16.43l-1.19.69a33.5,33.5,0,0,1-13.78,4.52,65.3,65.3,0,0,0-6.7.88L404.91,369Z"/><rect class="cls-11" x="87.08" y="273.72" width="342.35" height="93.31" rx="46.66"/><rect class="cls-12" x="122.91" y="293.58" width="270.71" height="53.58" rx="26.79"/><path class="cls-13" d="M122.91,320.37h0a26.78,26.78,0,0,0,26.79,26.79h13.06V293.58H149.7A26.79,26.79,0,0,0,122.91,320.37Z"/><rect class="cls-14" x="145.59" y="312.17" width="225.33" height="16.4" rx="8.2"/><path class="cls-15" d="M162.76,347.16H149.7a26.78,26.78,0,0,1-26.79-26.79h0a26.79,26.79,0,0,1,26.79-26.79h13.06V273.72h-29a46.65,46.65,0,0,0-46.66,46.65h0A46.66,46.66,0,0,0,133.74,367H163q-.19-3.82-.2-7.71Z"/><circle class="cls-16" cx="253.6" cy="117.71" r="110.76"/><polyline class="cls-17" points="231.01 195.03 231.01 120.05 194.48 120.05"/><circle class="cls-17" cx="177.11" cy="120.05" r="17.37"/><polyline class="cls-17" points="277.64 195.03 277.64 120.05 314.18 120.05"/><circle class="cls-17" cx="331.54" cy="120.05" r="17.37"/><circle class="cls-17" cx="254.3" cy="47.04" r="17.37"/><circle class="cls-17" cx="469.77" cy="137.42" r="17.37"/><line class="cls-17" x1="254.3" y1="195.03" x2="254.3" y2="67.71"/><polyline class="cls-17" points="357.01 220.64 394.95 182.71 422.79 182.71 455.69 149.81"/><polyline class="cls-17" points="393.61 231.35 430.63 231.35 448.64 213.34"/><line class="cls-17" x1="469.77" y1="212.71" x2="487.14" y2="212.71"/><circle class="cls-17" cx="40.73" cy="137.42" r="17.37"/><polyline class="cls-17" points="153.49 220.64 115.55 182.71 87.71 182.71 54.81 149.81"/><polyline class="cls-17" points="116.89 231.35 79.88 231.35 61.86 213.34"/><line class="cls-17" x1="40.73" y1="212.71" x2="23.37" y2="212.71"/><polyline class="cls-17" points="129.01 160.71 101.91 133.61 101.91 97.04 85.49 80.62"/><polyline class="cls-17" points="376.6 160.71 403.7 133.61 403.7 97.04 420.12 80.62"/></g></svg>